<?xml version="1.0" encoding="UTF-8"?>
<svg version="1.1" xmlns="http://www.w3.org/2000/svg" width="1344" height="1554">
<path d="M0 0 C3.36854359 1.68118422 6.54647265 3.65099041 9.75 5.625 C11.71918575 6.81393606 13.68927659 8.00137402 15.66015625 9.1875 C17.20920654 10.12335937 17.20920654 10.12335937 18.78955078 11.078125 C24.21699412 14.3271618 29.70261384 17.47423672 35.1875 20.625 C37.39717954 21.89705877 39.60681571 23.16919289 41.81640625 24.44140625 C43.39639404 25.35043701 43.39639404 25.35043701 45.00830078 26.27783203 C56.21585433 32.72944642 67.39587087 39.22785809 78.5625 45.75 C88.11605828 51.32993404 97.69299718 56.86824023 107.28076172 62.38916016 C114.59956627 66.60646145 121.89784595 70.85755215 129.1875 75.125 C136.96152483 79.67439041 144.77277594 84.14952617 152.625 88.5625 C160.99118894 93.26573158 169.2780623 98.08647154 177.52880859 102.98901367 C187.85588793 109.11848742 198.26696058 115.10083474 208.67675781 121.08837891 C214.16132892 124.24325635 219.64360353 127.40211057 225.125 130.5625 C226.20378418 131.18439209 227.28256836 131.80628418 228.39404297 132.44702148 C235.56842444 136.58666873 242.72546253 140.75512437 249.875 144.9375 C259.03240711 150.29387618 268.23447599 155.56877105 277.45355225 160.81808472 C287.1201691 166.32510385 296.72830364 171.92640148 306.31634521 177.56890869 C315.27816323 182.84093842 324.27704293 188.04273853 333.3125 193.1875 C342.92563809 198.66133823 352.50450059 204.18913243 362.05273438 209.77539062 C372.69102315 215.99698466 383.37125334 222.14535597 394.04931641 228.29833984 C398.20263762 230.69356149 402.35171744 233.09606575 406.5 235.5 C417.20395837 241.7014813 427.92092384 247.88039568 438.63720703 254.06054688 C445.17325223 257.83013763 451.70867562 261.6008065 458.24389648 265.37182617 C463.68502326 268.51136246 469.12690363 271.64957814 474.5703125 274.78515625 C486.05306897 281.40141117 497.51960901 288.04390011 508.96142578 294.73071289 C516.29312479 299.01244917 523.64282981 303.26220007 531 307.5 C540.33863207 312.8791408 549.65640317 318.29259447 558.9609375 323.73046875 C567.38682301 328.65109743 575.83798844 333.52715583 584.29345703 338.39672852 C591.50251886 342.55125789 598.69353645 346.73547823 605.875 350.9375 C612.2171075 354.64768027 618.57050756 358.33645292 624.953125 361.9765625 C625.54968903 362.31681961 626.14625305 362.65707672 626.76089478 363.00764465 C629.61602247 364.63509199 632.47272173 366.25965881 635.33154297 367.88061523 C637.49990291 369.11386382 639.65039818 370.3790376 641.78215379 371.6745317 C644.90933716 373.4986119 648.07004737 374.85057488 651.43818551 376.1721499 C658.55041159 379.22812762 666.054058 382.51136526 669.28626011 389.96697015 C671.25672047 398.40498808 671.02997995 407.05551544 670.86969572 415.66674052 C670.8199654 419.64847325 670.89821313 423.62811233 670.95970994 427.60939813 C671.04977924 434.580331 671.0583312 441.54763919 671.01280975 448.51895142 C670.94530357 458.88489292 671.00360254 469.24750287 671.08605674 479.61319905 C671.22893903 498.12763364 671.24497829 516.64055473 671.20561143 535.15540433 C671.17118496 551.36015706 671.17474488 567.56431302 671.21651649 583.7690506 C671.22196905 585.94335501 671.22741569 588.11765944 671.23285646 590.29196389 C671.24111083 593.56852429 671.24940119 596.84508458 671.25779804 600.12164461 C671.33500273 630.58204833 671.36848179 661.04225315 671.30944347 691.50271225 C671.30722246 692.65079061 671.30500145 693.79886897 671.30271314 694.98173759 C671.28441302 704.30471368 671.26490857 713.6276873 671.24531741 722.95066075 C671.16986261 759.31275829 671.22874967 795.67241142 671.39624023 832.03417969 C671.58415024 872.89698352 671.67614932 913.75832007 671.62331372 954.62157083 C671.61798067 958.97960906 671.61294711 963.33764755 671.60808754 967.69568634 C671.60618593 969.30524691 671.60618593 969.30524691 671.6042459 970.94732385 C671.5869954 987.13793607 671.64411795 1003.3271967 671.73860741 1019.51750946 C671.84589009 1037.93417655 671.85098671 1056.3476584 671.72083028 1074.76424572 C671.65098054 1085.06800827 671.66069008 1095.36436132 671.78611928 1105.66763771 C671.86191549 1112.5573873 671.83156444 1119.44149813 671.71625426 1126.33068355 C671.65349285 1130.25551174 671.63525396 1134.16587512 671.74654546 1138.08995625 C672.32791701 1160.09831282 672.32791701 1160.09831282 666.70686275 1166.4645739 C659.83361688 1172.77837019 651.184504 1176.60095148 642.72332755 1180.29892471 C636.8154041 1182.92012554 631.35224583 1186.31231285 625.8125 1189.625 C623.67527238 1190.86040278 621.53619405 1192.09261449 619.39453125 1193.3203125 C612.92655398 1197.0414519 606.46296904 1200.77017073 600 1204.5 C597.84246961 1205.74482926 595.68491751 1206.98962091 593.52734375 1208.234375 C591.92028564 1209.1615332 591.92028564 1209.1615332 590.28076172 1210.10742188 C586.93862144 1212.03540755 583.59628515 1213.96305304 580.25390625 1215.890625 C558.25154179 1228.56347933 558.25154179 1228.56347933 536.3046875 1241.33203125 C526.22263273 1247.23284183 516.12062411 1253.08749156 505.9375 1258.8125 C499.26605171 1262.56349059 492.6489133 1266.36901862 486.11083984 1270.34814453 C479.06185215 1274.61169106 471.88637364 1278.65696143 464.72753906 1282.73202515 C456.39147041 1287.4778629 448.08591943 1292.27038875 439.8125 1297.125 C430.54993017 1302.55812163 421.21208709 1307.84401391 411.80981445 1313.03173828 C405.530515 1316.51398608 399.40631942 1320.1919401 393.3059082 1323.97802734 C387.8392999 1327.32153595 382.2631476 1330.46789652 376.6875 1333.625 C374.21129555 1335.03219835 371.7363197 1336.44154656 369.26171875 1337.8515625 C368.64569794 1338.20244934 368.02967712 1338.55333618 367.39498901 1338.91485596 C361.57259607 1342.23551853 355.78322638 1345.61163061 350 1349 C341.36516449 1354.05654581 332.69393437 1359.04607261 324 1364 C314.28017815 1369.53904829 304.593501 1375.13146218 294.9375 1380.78125 C286.55096321 1385.68637297 278.13662287 1390.5422495 269.71704102 1395.39038086 C262.39900608 1399.6073404 255.10147544 1403.85805088 247.8125 1408.125 C240.07834529 1412.6500879 232.30980852 1417.10681617 224.5 1421.5 C212.58884147 1428.20129836 200.79086361 1435.08983583 189 1442 C175.23367394 1450.06408105 161.43085291 1458.05950185 147.57226562 1465.96386719 C130.06243979 1475.95155274 112.61345119 1486.04296071 95.2097168 1496.21435547 C88.92548988 1499.88484475 82.61915275 1503.51168852 76.29296875 1507.109375 C72.63530952 1509.20938339 69.00474276 1511.35226441 65.375 1513.5 C57.17752851 1518.34613538 48.90750911 1523.06336142 40.63388062 1527.77770996 C30.03211492 1533.82030996 19.47998857 1539.94366713 8.94921875 1546.109375 C7.664104 1546.8528418 7.664104 1546.8528418 6.35302734 1547.61132812 C4.88135566 1548.47985567 3.42509653 1549.37570998 1.99462891 1550.31054688 C-0.82746675 1552.1143447 -2.4866796 1553.0410273 -5.87744141 1552.77001953 C-9.08511555 1551.9790106 -11.34269366 1550.91975314 -14.16796875 1549.2265625 C-15.13331543 1548.65494385 -16.09866211 1548.0833252 -17.09326172 1547.49438477 C-18.11436035 1546.87748779 -19.13545898 1546.26059082 -20.1875 1545.625 C-22.36049292 1544.33432531 -24.53367194 1543.04396389 -26.70703125 1541.75390625 C-28.31505615 1540.79315186 -28.31505615 1540.79315186 -29.95556641 1539.81298828 C-34.07474415 1537.35997995 -38.22146233 1534.95670477 -42.375 1532.5625 C-43.91017987 1531.67451999 -45.44533544 1530.786498 -46.98046875 1529.8984375 C-50.68999287 1527.75535686 -54.40139011 1525.61554049 -58.11328125 1523.4765625 C-60.30471804 1522.21359465 -62.49612364 1520.95057269 -64.6875 1519.6875 C-65.78843994 1519.05295898 -66.88937988 1518.41841797 -68.02368164 1517.76464844 C-75.46717913 1513.47084558 -82.89422519 1509.14970797 -90.3125 1504.8125 C-98.49011675 1500.03263947 -106.69283781 1495.30027061 -114.92260742 1490.61083984 C-125.31009471 1484.68994275 -135.66194617 1478.70739059 -146.01416016 1472.72509766 C-148.62728062 1471.2153422 -151.24120935 1469.70700071 -153.85546875 1468.19921875 C-160.87761991 1464.14539766 -167.88701108 1460.07066595 -174.87890625 1455.96484375 C-175.48623093 1455.60821152 -176.0935556 1455.25157928 -176.71928406 1454.88414001 C-179.23874151 1453.40452406 -181.75816889 1451.92485699 -184.2774353 1450.44491577 C-192.03129212 1445.89138805 -199.80452124 1441.37596335 -207.625 1436.9375 C-219.13975291 1430.3986923 -230.50748108 1423.61513607 -241.88769531 1416.84619141 C-246.9923119 1413.81817834 -252.11292951 1410.81734033 -257.24121094 1407.82958984 C-261.89193762 1405.10806238 -261.89193762 1405.10806238 -263 1404 C-263.10394809 1401.46187452 -263.14206252 1398.95070287 -263.1386652 1396.41184902 C-263.14150742 1395.60365256 -263.14434964 1394.79545609 -263.14727798 1393.96276882 C-263.15568552 1391.21950822 -263.1568979 1388.47628951 -263.15821838 1385.73301697 C-263.16277962 1383.76049831 -263.16777899 1381.78798062 -263.17318195 1379.81546408 C-263.18682243 1374.36777328 -263.19419842 1368.92008875 -263.20060861 1363.47238529 C-263.20858673 1357.60799155 -263.22229334 1351.74361098 -263.23532104 1345.87922668 C-263.25712067 1335.7096949 -263.27525235 1325.54016182 -263.29092598 1315.37061882 C-263.30737398 1304.70111536 -263.32582403 1294.03161877 -263.34705925 1283.36212349 C-263.34837686 1282.69951847 -263.34969446 1282.03691345 -263.351052 1281.35422949 C-263.35775379 1277.98939692 -263.36449243 1274.62456442 -263.37124526 1271.25973196 C-263.41904898 1247.40680383 -263.46222229 1223.55386934 -263.50268555 1199.70092773 C-263.54201343 1176.52351417 -263.58343059 1153.34610588 -263.62768555 1130.16870117 C-263.62904808 1129.45467397 -263.63041061 1128.74064677 -263.63181442 1128.00498238 C-263.64549942 1120.83463677 -263.659227 1113.66429123 -263.67298577 1106.49394575 C-263.70101472 1091.88622818 -263.72875945 1077.27851007 -263.7563324 1062.67079163 C-263.7576006 1061.99910521 -263.7588688 1061.3274188 -263.76017542 1060.63537825 C-263.84487703 1015.7569274 -263.92293169 970.87846453 -264 926 C-265.07958984 925.39309326 -266.15917969 924.78618652 -267.27148438 924.16088867 C-268.71224321 923.35075514 -270.15299821 922.54061481 -271.59375 921.73046875 C-272.30241211 921.33210815 -273.01107422 920.93374756 -273.74121094 920.52331543 C-284.25793797 914.6091675 -294.70977079 908.59101909 -305.125 902.5 C-314.0528052 897.27915635 -323.014216 892.12011232 -332 887 C-341.71983589 881.46097632 -351.40649925 875.86853767 -361.0625 870.21875 C-368.35900169 865.95116745 -375.6750282 861.71851044 -383 857.5 C-391.34802509 852.69155242 -399.68243232 847.86094289 -408 843 C-416.27777064 838.16323578 -424.56940004 833.35132558 -432.875 828.5625 C-433.95233398 827.94133301 -435.02966797 827.32016602 -436.13964844 826.68017578 C-441.64107645 823.50943029 -447.14423519 820.34170789 -452.6484375 817.17578125 C-462.75632327 811.3580784 -472.84827543 805.51917992 -482.875 799.5625 C-491.90641286 794.19731249 -501.01261341 788.96925971 -510.14083862 783.77139282 C-517.76195552 779.43144931 -525.35810197 775.05551447 -532.90356445 770.58520508 C-538.40357691 767.33324338 -543.94757055 764.16148839 -549.5 761 C-556.5926173 756.96090802 -563.65326261 752.87413719 -570.6809082 748.72314453 C-581.29763336 742.45527298 -591.97269318 736.28609757 -602.6875 730.1875 C-610.10212188 725.96047257 -617.46893375 721.65228028 -624.83813477 717.34667969 C-631.09110977 713.69395653 -637.35306446 710.05754783 -643.625 706.4375 C-650.81190426 702.28428736 -657.97438827 698.09038325 -665.125 693.875 C-666.09260254 693.30579834 -667.06020508 692.73659668 -668.05712891 692.15014648 C-668.94835449 691.62364502 -669.83958008 691.09714355 -670.7578125 690.5546875 C-671.95108154 689.85061768 -671.95108154 689.85061768 -673.16845703 689.13232422 C-675 688 -675 688 -676 687 C-676.09707186 685.39444999 -676.12371608 683.78460531 -676.12304783 682.17612362 C-676.12503888 681.1256305 -676.12702993 680.07513739 -676.12908131 678.99281114 C-676.12616847 677.82454855 -676.12325563 676.65628595 -676.12025452 675.45262146 C-676.12110894 674.22261777 -676.12196337 672.99261409 -676.12284368 671.72533756 C-676.12421193 668.29570215 -676.12106424 664.8661231 -676.11606562 661.43649447 C-676.11176459 657.74390766 -676.1132073 654.05132274 -676.1139679 650.35873413 C-676.11449335 643.95591757 -676.11134429 637.55311117 -676.10573006 631.15029716 C-676.09761798 621.89279653 -676.09500014 612.63530082 -676.09374207 603.37779702 C-676.09155108 588.35969067 -676.08488975 573.34158973 -676.07543945 558.32348633 C-676.06626653 543.73103869 -676.05918511 529.13859252 -676.05493164 514.54614258 C-676.05466892 513.64731963 -676.05440619 512.74849669 -676.05413551 511.82243668 C-676.05283051 507.31350188 -676.05156679 502.80456706 -676.05032361 498.29563224 C-676.03994956 460.863751 -676.02232999 423.43187592 -676 386 C-675.39729373 385.65589742 -674.79458746 385.31179483 -674.17361736 384.9572649 C-671.41533509 383.38230611 -668.65725101 381.80700054 -665.89916992 380.23168945 C-664.95108208 379.69040657 -664.00299423 379.14912369 -663.02617645 378.59143829 C-656.43368847 374.82561977 -649.8615805 371.02835525 -643.3125 367.1875 C-629.48004159 359.09837614 -615.59450745 351.10205904 -601.70898438 343.10449219 C-588.85020481 335.69713224 -576.00720246 328.26446752 -563.19482422 320.77709961 C-557.0694442 317.19979191 -550.92396468 313.66278473 -544.7578125 310.15625 C-539.77482973 307.30883127 -534.8285964 304.39810923 -529.875 301.5 C-520.94729695 296.27898885 -511.98586472 291.11996442 -503 286 C-494.30596999 281.04623487 -485.63502743 276.05621614 -477 271 C-468.40482534 265.96810107 -459.77679783 260.99625079 -451.125 256.0625 C-432.70801912 245.5586604 -414.34326402 234.96667836 -396.03808594 224.26904297 C-387.61261516 219.34842425 -379.16169645 214.47266269 -370.70654297 209.60327148 C-363.4974806 205.4487418 -356.30650808 201.26444621 -349.125 197.0625 C-339.85505963 191.64069137 -330.54168145 186.29795026 -321.21154785 180.98077393 C-312.0871716 175.77954871 -302.99867226 170.51972122 -293.93310547 165.21655273 C-283.40915375 159.06233258 -272.84619863 152.97630004 -262.28222656 146.89111328 C-256.85340058 143.76319852 -251.42680719 140.63141552 -246 137.5 C-243.83334417 136.24998121 -241.6666775 134.99998122 -239.5 133.75 C-238.4275 133.13125 -237.355 132.5125 -236.25 131.875 C-226.5 126.25 -226.5 126.25 -223.24951172 124.37475586 C-221.08442929 123.12564482 -218.91939018 121.87645871 -216.75439453 120.62719727 C-211.31384294 117.48797691 -205.87252784 114.35009437 -200.4296875 111.21484375 C-189.97793801 105.19252671 -179.53700452 99.15330663 -169.125 93.0625 C-159.85669767 87.64177983 -150.54535637 82.29940317 -141.21658325 76.98379517 C-131.97277091 71.71541366 -122.76848021 66.38237162 -113.5859375 61.0078125 C-107.24548576 57.30004499 -100.8831116 53.63378839 -94.5 50 C-87.07768548 45.7738336 -79.68602576 41.49822275 -72.3125 37.1875 C-60.69702513 30.39695797 -49.04661765 23.66824549 -37.38769531 16.95263672 C-33.80668054 14.88857242 -30.22734013 12.8216295 -26.6484375 10.75390625 C-24.84814134 9.71407145 -23.04782169 8.67427733 -21.24749756 7.63449097 C-19.53084792 6.64282016 -17.8144935 5.65063837 -16.09814453 4.65844727 C-15.06544434 4.06217529 -14.03274414 3.46590332 -12.96875 2.8515625 C-12.05544922 2.32385254 -11.14214844 1.79614258 -10.20117188 1.25244141 C-6.13619174 -1.0604854 -4.65318263 -1.22067796 0 0 Z M-10.2890625 301.2734375 C-11.13976318 301.76360352 -11.99046387 302.25376953 -12.86694336 302.75878906 C-14.2321814 303.55881348 -14.2321814 303.55881348 -15.625 304.375 C-17.0337439 305.19049316 -17.0337439 305.19049316 -18.47094727 306.02246094 C-21.31855912 307.6739071 -24.16033364 309.33493434 -27 311 C-27.80002441 311.46889648 -28.60004883 311.93779297 -29.42431641 312.42089844 C-32.30208267 314.1097372 -35.17813427 315.80141546 -38.05102539 317.49853516 C-42.20244951 319.95024469 -46.37130535 322.36657364 -50.5625 324.75 C-56.81813034 328.30936093 -63.03612175 331.93079235 -69.25 335.5625 C-81.03996348 342.45102841 -92.86353833 349.28015115 -104.69580078 356.09570312 C-108.02614252 358.01506662 -111.35509148 359.93682353 -114.68359375 361.859375 C-125.61869514 368.1748475 -136.56328106 374.47261291 -147.53173828 380.72998047 C-153.86749137 384.34676608 -160.18638901 387.99177103 -166.49707031 391.65209961 C-172.11617227 394.91106336 -177.74197214 398.15822582 -183.37036133 401.40112305 C-192.92855049 406.90867166 -202.47555266 412.43428655 -212 418 C-223.54725761 424.74707565 -235.12902076 431.43339345 -246.71777344 438.10888672 C-252.14659942 441.23680148 -257.57319281 444.36858448 -263 447.5 C-265.16665583 448.75001879 -267.3333225 450.00001878 -269.5 451.25 C-270.5725 451.86875 -271.645 452.4875 -272.75 453.125 C-282.5 458.75 -282.5 458.75 -285.75048828 460.62524414 C-287.91557071 461.87435518 -290.08060982 463.12354129 -292.24560547 464.37280273 C-297.68615706 467.51202309 -303.12747216 470.64990563 -308.5703125 473.78515625 C-320.1714763 480.46973907 -331.75416625 487.18411286 -343.31298828 493.94165039 C-350.53653196 498.15946024 -357.79088819 502.32043009 -365.06103516 506.45727539 C-371.79892133 510.29739933 -378.49600978 514.20470094 -385.1875 518.125 C-395.04550459 523.89774834 -404.9819042 529.51028589 -415 535 C-415 535.99 -415 536.98 -415 538 C-413.34890129 539.40113962 -413.34890129 539.40113962 -411.1015625 540.609375 C-410.24248291 541.10920898 -409.38340332 541.60904297 -408.49829102 542.12402344 C-407.55010498 542.6605957 -406.60191895 543.19716797 -405.625 543.75 C-404.64781006 544.31493164 -403.67062012 544.87986328 -402.66381836 545.46191406 C-399.44831809 547.31817038 -396.22422145 549.15894067 -393 551 C-389.63679842 552.93610672 -386.27575227 554.87591863 -382.91479492 556.81591797 C-380.6749714 558.10816777 -378.43424369 559.3988516 -376.19262695 560.68798828 C-370.53155073 563.94594885 -364.89367017 567.23205594 -359.3125 570.625 C-352.28936882 574.89170846 -345.12429795 578.89825207 -337.96020508 582.92236328 C-331.25568755 586.69840176 -324.61182205 590.56416525 -318 594.5 C-310.65747286 598.87005335 -303.26576817 603.13420133 -295.8125 607.3125 C-286.55766627 612.50278069 -277.41580246 617.86859623 -268.30117798 623.29946899 C-261.31952061 627.4583828 -254.31852469 631.55621797 -247.20874023 635.49145508 C-240.60240717 639.1731229 -234.12133879 643.06649649 -227.625 646.9375 C-219.38492254 651.84640449 -211.11309077 656.67075432 -202.70214844 661.28198242 C-193.39266359 666.40219909 -184.25245216 671.81617578 -175.08789062 677.18994141 C-170.10365 680.11160174 -165.11479897 683.02534512 -160.125 685.9375 C-158.64845947 686.79939941 -158.64845947 686.79939941 -157.14208984 687.67871094 C-148.68532225 692.61033884 -140.20568244 697.50183712 -131.72241211 702.38769531 C-124.3626055 706.62914498 -117.0203883 710.89970503 -109.6875 715.1875 C-101.46224828 719.99627347 -93.20850441 724.75100214 -84.92797852 729.46386719 C-78.29964481 733.24221094 -71.70873164 737.08205657 -65.125 740.9375 C-56.07798836 746.23459937 -46.98261111 751.43824606 -37.83642578 756.56225586 C-32.61477661 759.49364944 -27.4516901 762.50303778 -22.32568359 765.59863281 C-19.07078967 767.55990629 -15.79252049 769.47774043 -12.5 771.375 C-11.89414062 771.72949219 -11.28828125 772.08398438 -10.6640625 772.44921875 C-7.53574124 774.38160207 -7.53574124 774.38160207 -4 775 C-4 932.74 -4 1090.48 -4 1253 C4.68022025 1248.27895882 4.68022025 1248.27895882 13.26953125 1243.4140625 C14.33510254 1242.79781006 15.40067383 1242.18155762 16.49853516 1241.54663086 C17.59214355 1240.91249268 18.68575195 1240.27835449 19.8125 1239.625 C22.12858439 1238.2845992 24.44517847 1236.94508173 26.76171875 1235.60546875 C27.85274902 1234.97431152 28.9437793 1234.3431543 30.06787109 1233.69287109 C33.41307642 1231.76150942 36.76690939 1229.84635299 40.125 1227.9375 C46.2575179 1224.44400645 52.34619108 1220.87726459 58.4375 1217.3125 C67.53045286 1211.99263363 76.67491127 1206.77309901 85.85644531 1201.60791016 C91.99929609 1198.14662974 98.09403852 1194.61588478 104.15795898 1191.01855469 C111.06165189 1186.93603161 118.03160497 1182.97055501 125 1179 C133.22025296 1174.31520189 141.42464971 1169.60889343 149.56616211 1164.78808594 C155.87063007 1161.06065486 162.21566885 1157.40472697 168.5625 1153.75 C177.05649124 1148.85842054 185.537631 1143.946087 194 1139 C210.11825809 1129.58280042 226.28626057 1120.25183726 242.5 1111 C260.39937102 1100.78429491 278.23604977 1090.46542625 296.00280762 1080.02111816 C303.49984795 1075.61541714 311.01681492 1071.25494408 318.61425781 1067.02441406 C323.77786374 1064.14401635 328.8709033 1061.15198705 333.9597168 1058.1418457 C341.57591583 1053.64395634 349.24369319 1049.23643298 356.90917969 1044.82324219 C365.49705631 1039.87568903 374.05770097 1034.88283013 382.61181641 1029.87719727 C389.18418045 1026.03879944 395.78830961 1022.26360136 402.44580078 1018.57470703 C405.40358074 1017.0407811 405.40358074 1017.0407811 408 1015 C408.11439392 1012.47145729 408.163117 1009.9695065 408.17053413 1007.43978214 C408.17990461 1006.23198139 408.17990461 1006.23198139 408.18946439 1004.99978063 C408.20935706 1002.26663276 408.2219965 999.53349856 408.23464966 996.80030823 C408.24724402 994.83491502 408.26023323 992.86952432 408.27358615 990.90413612 C408.3090065 985.47577046 408.33777901 980.04738667 408.36526942 974.61897576 C408.38955036 969.96956611 408.4174664 965.32018076 408.44522573 960.6707908 C408.70245873 917.31636915 408.84499582 873.9612854 408.95736834 830.60626872 C408.97415638 824.15425914 408.99159462 817.70225133 409.00927734 811.25024414 C409.01218737 810.18082764 409.01218737 810.18082764 409.01515619 809.08980678 C409.07844189 785.98212822 409.19951162 762.8752058 409.35158583 739.76795459 C409.50760502 716.01806962 409.60806671 692.26859764 409.63764684 668.51820191 C409.65679602 653.21469003 409.72428301 637.91310557 409.86393343 622.61019044 C409.9505768 612.58199471 409.97454199 602.55487318 409.94903661 592.52634037 C409.93614716 586.7375315 409.95095477 580.95225861 410.03995132 575.16404343 C410.12084414 569.86265403 410.12309003 564.56722314 410.06306849 559.26561009 C410.05519401 557.34948449 410.07605285 555.43297794 410.12869288 553.51755936 C410.42515546 545.01731855 410.42515546 545.01731855 408 537 C403.86424821 532.69821498 398.53149825 530.27795343 393.12066017 527.94730698 C389.95240085 526.53203347 387.04104176 524.78710265 384.05859375 523.015625 C381.85201759 521.75961681 379.64497998 520.50441901 377.4375 519.25 C367.57071054 513.63065893 357.73971029 507.95414047 347.93920898 502.21972656 C340.64211618 497.9518552 333.32554043 493.71883792 326 489.5 C316.66132259 484.12093845 307.34359631 478.70740523 298.0390625 473.26953125 C289.61686539 468.35105656 281.16959224 463.47679309 272.7175293 458.60986328 C265.39930158 454.39287601 258.10156229 450.1421596 250.8125 445.875 C241.93425293 440.67877979 232.99792778 435.59439091 224.03076172 430.5534668 C218.00659433 427.158531 212.04619942 423.67795777 206.13305664 420.09375 C199.82500674 416.27292423 193.41464103 412.63774015 187 409 C176.4289688 402.99974109 165.88719587 396.95964103 155.4375 390.75 C145.32369124 384.74322499 135.11996832 378.89960929 124.89987183 373.07658386 C124.31029694 372.74064713 123.72072205 372.40471039 123.11328125 372.05859375 C122.22831467 371.55438652 122.22831467 371.55438652 121.32546997 371.03999329 C111.83897259 365.63171447 102.38805052 360.16151646 92.93457031 354.69580078 C90.18409802 353.10638476 87.43215164 351.51955715 84.6796875 349.93359375 C77.77197442 345.94957874 70.88105437 341.94745441 64.0625 337.8125 C52.190738 330.62490246 40.06096428 323.86350637 28 317 C24.12413671 314.79317734 20.24929454 312.58457523 16.375 310.375 C15.56595215 309.91504639 14.7569043 309.45509277 13.92333984 308.98120117 C8.92934034 306.13367211 4.0183679 303.18329363 -0.84912109 300.12353516 C-4.69816419 298.11294533 -6.7900854 299.24088312 -10.2890625 301.2734375 Z " fill="#00AC69" transform="translate(676,1)"/>
<path d="M0 0 C3.36854359 1.68118422 6.54647265 3.65099041 9.75 5.625 C11.71918575 6.81393606 13.68927659 8.00137402 15.66015625 9.1875 C17.20920654 10.12335937 17.20920654 10.12335937 18.78955078 11.078125 C24.21699412 14.3271618 29.70261384 17.47423672 35.1875 20.625 C37.39717954 21.89705877 39.60681571 23.16919289 41.81640625 24.44140625 C43.39639404 25.35043701 43.39639404 25.35043701 45.00830078 26.27783203 C56.21585433 32.72944642 67.39587087 39.22785809 78.5625 45.75 C88.11605828 51.32993404 97.69299718 56.86824023 107.28076172 62.38916016 C114.59956627 66.60646145 121.89784595 70.85755215 129.1875 75.125 C136.96152483 79.67439041 144.77277594 84.14952617 152.625 88.5625 C160.99118894 93.26573158 169.2780623 98.08647154 177.52880859 102.98901367 C187.85588793 109.11848742 198.26696058 115.10083474 208.67675781 121.08837891 C214.16132892 124.24325635 219.64360353 127.40211057 225.125 130.5625 C226.20378418 131.18439209 227.28256836 131.80628418 228.39404297 132.44702148 C235.56842444 136.58666873 242.72546253 140.75512437 249.875 144.9375 C259.03240711 150.29387618 268.23447599 155.56877105 277.45355225 160.81808472 C287.1201691 166.32510385 296.72830364 171.92640148 306.31634521 177.56890869 C315.27816323 182.84093842 324.27704293 188.04273853 333.3125 193.1875 C342.92563809 198.66133823 352.50450059 204.18913243 362.05273438 209.77539062 C372.69102315 215.99698466 383.37125334 222.14535597 394.04931641 228.29833984 C398.20263762 230.69356149 402.35171744 233.09606575 406.5 235.5 C417.20395837 241.7014813 427.92092384 247.88039568 438.63720703 254.06054688 C445.17325223 257.83013763 451.70867562 261.6008065 458.24389648 265.37182617 C463.68502326 268.51136246 469.12690363 271.64957814 474.5703125 274.78515625 C486.05306897 281.40141117 497.51960901 288.04390011 508.96142578 294.73071289 C516.29312479 299.01244917 523.64282981 303.26220007 531 307.5 C540.33863207 312.8791408 549.65640317 318.29259447 558.9609375 323.73046875 C567.38682301 328.65109743 575.83798844 333.52715583 584.29345703 338.39672852 C592.4851498 343.11754088 600.65125256 347.88090419 608.81152344 352.65576172 C615.99629997 356.85139786 623.21591469 360.9836747 630.44720459 365.09832764 C635.63788221 368.05436204 640.81992431 371.02543174 646 374 C647.05058594 374.60247559 648.10117188 375.20495117 649.18359375 375.82568359 C652.04677346 377.47514411 654.90000013 379.14039625 657.75 380.8125 C658.59594727 381.29799316 659.44189453 381.78348633 660.31347656 382.28369141 C661.07112305 382.73276855 661.82876953 383.1818457 662.609375 383.64453125 C663.26905273 384.02971924 663.92873047 384.41490723 664.60839844 384.81176758 C665.06762695 385.20388428 665.52685547 385.59600098 666 386 C666 386.99 666 387.98 666 389 C665.05253906 389.5261792 665.05253906 389.5261792 664.0859375 390.06298828 C650.33551902 397.7084389 636.6710403 405.47746848 623.09765625 413.43359375 C616.74953385 417.15334912 610.37637887 420.82895249 604 424.5 C595.65190241 429.30832078 587.31756684 434.1390576 579 439 C567.45277514 445.74713114 555.87097881 452.4333937 544.28222656 459.10888672 C538.85340062 462.23680146 533.42677993 465.36853731 528 468.5 C521.47766725 472.26363919 514.95486238 476.02644622 508.4296875 479.78515625 C496.8285237 486.46973907 485.24583375 493.18411286 473.68701172 499.94165039 C466.46856835 504.15648219 459.21940544 508.31464156 451.9543457 512.44848633 C444.07673404 516.93811918 436.24797126 521.51006799 428.43164062 526.10546875 C426.55753043 527.20395201 424.67902832 528.2949817 422.79589844 529.37792969 C420.86649569 530.49729328 418.95379217 531.64576875 417.05566406 532.81738281 C409.91318832 537.07006256 409.91318832 537.07006256 405.99609375 536.76953125 C405.00738281 536.18558594 404.01867188 535.60164062 403 535 C402.23059082 534.57380371 401.46118164 534.14760742 400.66845703 533.70849609 C397.76813868 532.08471707 394.91592056 530.39227752 392.0625 528.6875 C389.90706191 527.41398942 387.75079048 526.14188836 385.59375 524.87109375 C384.49804688 524.2251123 383.40234375 523.57913086 382.2734375 522.91357422 C377.2352541 519.96837124 372.1510988 517.10693003 367.0625 514.25 C359.893386 510.21714803 352.76312921 506.13149615 345.68603516 501.93945312 C339.29808241 498.16045263 332.86957577 494.45330209 326.4375 490.75 C317.94347778 485.85847688 309.46229286 480.94621544 301 476 C291.59240536 470.50182325 282.16034627 465.04729646 272.7175293 459.60986328 C265.39930158 455.39287601 258.10156229 451.1421596 250.8125 446.875 C241.93425293 441.67877979 232.99792778 436.59439091 224.03076172 431.5534668 C218.00659433 428.158531 212.04619942 424.67795777 206.13305664 421.09375 C199.82500674 417.27292423 193.41464103 413.63774015 187 410 C176.4289688 403.99974109 165.88719587 397.95964103 155.4375 391.75 C145.32369124 385.74322499 135.11996832 379.89960929 124.89987183 374.07658386 C124.31029694 373.74064713 123.72072205 373.40471039 123.11328125 373.05859375 C122.52330353 372.7224556 121.93332581 372.38631744 121.32546997 372.03999329 C111.83897259 366.63171447 102.38805052 361.16151646 92.93457031 355.69580078 C90.18409802 354.10638476 87.43215164 352.51955715 84.6796875 350.93359375 C77.77197442 346.94957874 70.88105437 342.94745441 64.0625 338.8125 C52.190738 331.62490246 40.06096428 324.86350637 28 318 C24.12413671 315.79317734 20.24929454 313.58457523 16.375 311.375 C15.56595215 310.91504639 14.7569043 310.45509277 13.92333984 309.98120117 C12.76632568 309.32148315 12.76632568 309.32148315 11.5859375 308.6484375 C10.83924805 308.22530273 10.09255859 307.80216797 9.32324219 307.36621094 C7.64956842 306.38198664 6.00170744 305.35339133 4.37207031 304.29785156 C3.49905273 303.73807617 2.62603516 303.17830078 1.7265625 302.6015625 C0.94104004 302.08158691 0.15551758 301.56161133 -0.65380859 301.02587891 C-3.60150719 299.73698926 -4.97228589 300.02586855 -8 301 C-10.56361561 302.37707731 -13.02426631 303.79280581 -15.5 305.3125 C-17.02913851 306.23181641 -18.55912458 307.14972414 -20.08984375 308.06640625 C-20.89276855 308.54867676 -21.69569336 309.03094727 -22.52294922 309.52783203 C-26.67009137 311.99257352 -30.86727868 314.36833996 -35.0625 316.75 C-43.64395802 321.63520622 -52.18118178 326.59272263 -60.70532227 331.57714844 C-68.12174572 335.91124493 -75.55629242 340.21295221 -83 344.5 C-91.34801687 349.30846268 -99.68240878 354.13909679 -108 359 C-125.00642158 368.93598881 -142.07195433 378.76829137 -159.18408203 388.52099609 C-165.66777004 392.22296882 -172.11862257 395.97923617 -178.5625 399.75 C-187.44900469 404.94955833 -196.36877786 410.08729115 -205.3125 415.1875 C-214.60047554 420.48420749 -223.87355682 425.80484098 -233.12109375 431.171875 C-237.86014181 433.92172965 -242.6074998 436.65707061 -247.35498047 439.39233398 C-256.91837746 444.90267225 -266.47045454 450.4313074 -276 456 C-287.53988807 462.74276962 -299.11435569 469.42462552 -310.69580078 476.09570312 C-314.02614252 478.01506662 -317.35509148 479.93682353 -320.68359375 481.859375 C-331.61869514 488.1748475 -342.56328106 494.47261291 -353.53173828 500.72998047 C-359.85723325 504.3409102 -366.1661605 507.97957163 -372.46630859 511.63452148 C-377.17890328 514.36813921 -381.89594413 517.09384058 -386.6171875 519.8125 C-387.77840257 520.48136241 -388.93961676 521.15022634 -390.10083008 521.8190918 C-392.34765621 523.11293024 -394.59486683 524.40610132 -396.8425293 525.69848633 C-397.88578369 526.29943115 -398.92903809 526.90037598 -400.00390625 527.51953125 C-401.52008545 528.38505615 -401.52008545 528.38505615 -403.06689453 529.26806641 C-405.00492044 530.41242763 -406.91403883 531.60738529 -408.78857422 532.85302734 C-409.65111816 533.42102051 -410.51366211 533.98901367 -411.40234375 534.57421875 C-412.14863037 535.08944092 -412.89491699 535.60466309 -413.66381836 536.13549805 C-417.04597214 537.38706107 -418.75366969 536.4230489 -422 535 C-423.81322256 534.06721403 -425.5997186 533.08106039 -427.359375 532.05078125 C-428.37902344 531.4578125 -429.39867187 530.86484375 -430.44921875 530.25390625 C-431.53847656 529.61324219 -432.62773437 528.97257813 -433.75 528.3125 C-434.90720972 527.63743361 -436.06476857 526.96296538 -437.22265625 526.2890625 C-439.62570582 524.88984195 -442.0272392 523.48807065 -444.42773438 522.08447266 C-449.93786852 518.86550612 -455.47010928 515.68485972 -461 512.5 C-463.1550373 511.25666533 -465.30998483 510.01317505 -467.46484375 508.76953125 C-471.91422807 506.20245003 -476.36490528 503.63762768 -480.81640625 501.07421875 C-499.7550572 490.16465019 -499.7550572 490.16465019 -508.375 485.0625 C-515.72585013 480.7128791 -523.14194158 476.47913682 -530.5625 472.25 C-540.42759692 466.62763996 -550.26024243 460.95416813 -560.06079102 455.21972656 C-567.35788382 450.9518552 -574.67445957 446.71883792 -582 442.5 C-591.33867741 437.12093845 -600.65640369 431.70740523 -609.9609375 426.26953125 C-618.37152628 421.3578357 -626.8074293 416.49077394 -635.24731445 411.62963867 C-643.90709922 406.63860189 -652.54538898 401.61141906 -661.17382812 396.56640625 C-666.10190213 393.68569493 -671.03748951 390.82101219 -676 388 C-674.73884586 384.21653758 -673.73740302 384.05510388 -670.26171875 382.28125 C-666.01252953 380.05701687 -661.80918782 377.78569214 -657.64453125 375.40625 C-656.54028809 374.77581787 -655.43604492 374.14538574 -654.29833984 373.49584961 C-653.13633332 372.83067105 -651.97438822 372.16538518 -650.8125 371.5 C-650.2070636 371.15373566 -649.6016272 370.80747131 -648.97784424 370.45071411 C-639.60247202 365.08795958 -630.25924283 359.67193995 -620.9362793 354.21850586 C-610.42160251 348.06936356 -599.86777915 341.98864007 -589.31298828 335.90869141 C-562.36228036 320.4005108 -562.36228036 320.4005108 -535.48046875 304.7734375 C-524.0928726 298.1127501 -512.67362011 291.51214947 -501.2114563 284.98086548 C-493.11420255 280.36589122 -485.0427996 275.70943879 -477 271 C-468.40482534 265.96810107 -459.77679783 260.99625079 -451.125 256.0625 C-432.70801912 245.5586604 -414.34326402 234.96667836 -396.03808594 224.26904297 C-387.61261516 219.34842425 -379.16169645 214.47266269 -370.70654297 209.60327148 C-363.4974806 205.4487418 -356.30650808 201.26444621 -349.125 197.0625 C-339.85505963 191.64069137 -330.54168145 186.29795026 -321.21154785 180.98077393 C-312.0871716 175.77954871 -302.99867226 170.51972122 -293.93310547 165.21655273 C-283.40915375 159.06233258 -272.84619863 152.97630004 -262.28222656 146.89111328 C-256.85340058 143.76319852 -251.42680719 140.63141552 -246 137.5 C-243.83334417 136.24998121 -241.6666775 134.99998122 -239.5 133.75 C-238.4275 133.13125 -237.355 132.5125 -236.25 131.875 C-226.5 126.25 -226.5 126.25 -223.24951172 124.37475586 C-221.08442929 123.12564482 -218.91939018 121.87645871 -216.75439453 120.62719727 C-211.31384294 117.48797691 -205.87252784 114.35009437 -200.4296875 111.21484375 C-189.97793801 105.19252671 -179.53700452 99.15330663 -169.125 93.0625 C-159.85669767 87.64177983 -150.54535637 82.29940317 -141.21658325 76.98379517 C-131.97277091 71.71541366 -122.76848021 66.38237162 -113.5859375 61.0078125 C-107.24548576 57.30004499 -100.8831116 53.63378839 -94.5 50 C-87.07768548 45.7738336 -79.68602576 41.49822275 -72.3125 37.1875 C-60.69702513 30.39695797 -49.04661765 23.66824549 -37.38769531 16.95263672 C-33.80668054 14.88857242 -30.22734013 12.8216295 -26.6484375 10.75390625 C-24.84814134 9.71407145 -23.04782169 8.67427733 -21.24749756 7.63449097 C-19.53084792 6.64282016 -17.8144935 5.65063837 -16.09814453 4.65844727 C-15.06544434 4.06217529 -14.03274414 3.46590332 -12.96875 2.8515625 C-12.05544922 2.32385254 -11.14214844 1.79614258 -10.20117188 1.25244141 C-6.13619174 -1.0604854 -4.65318263 -1.22067796 0 0 Z " fill="#1BE682" transform="translate(676,1)"/>
<path d="M0 0 C3.05062443 1.20371378 5.96158538 2.43624355 8.828125 4.03125 C9.53582031 4.42401123 10.24351563 4.81677246 10.97265625 5.22143555 C12.09994141 5.85432495 12.09994141 5.85432495 13.25 6.5 C14.04792969 6.94577393 14.84585937 7.39154785 15.66796875 7.85083008 C21.5084584 11.12803216 27.29383351 14.49170971 33.05541992 17.90527344 C39.52884539 21.73736567 46.04301898 25.49689594 52.5625 29.25 C61.05655415 34.14146727 69.53770751 39.05378478 78 44 C87.41128253 49.5003321 96.84726916 54.95659259 106.29345703 60.39672852 C113.5025194 64.5512582 120.69349192 68.73555379 127.875 72.9375 C136.55257084 78.01284316 145.26613629 83.02244606 154 88 C167.69613279 95.8064073 181.31474483 103.74190209 194.91796875 111.70898438 C210.10641165 120.6010167 225.35548446 129.37988684 240.64941406 138.08886719 C242.9553053 139.40411905 245.25950743 140.72195678 247.56152344 142.04394531 C253.74297275 145.59147246 259.94985581 149.08017186 266.21630859 152.47607422 C271.62110466 155.43491802 276.96472206 158.50218857 282.3125 161.5625 C282.92049438 161.91004333 283.52848877 162.25758667 284.15490723 162.61566162 C294.01936945 168.25685877 303.82221673 173.99605884 313.59375 179.796875 C335.72377916 192.92951274 358.00066093 205.83654939 380.4375 218.4375 C389.60685947 223.58955489 398.66507458 228.91722063 407.69992065 234.30001831 C414.68120988 238.45875954 421.6818291 242.55641379 428.79125977 246.49145508 C435.39759283 250.1731229 441.87866121 254.06649649 448.375 257.9375 C456.61507746 262.84640449 464.88690923 267.67075432 473.29785156 272.28198242 C482.60733641 277.40219909 491.74754784 282.81617578 500.91210938 288.18994141 C505.89635 291.11160174 510.88520103 294.02534512 515.875 296.9375 C517.35154053 297.79939941 517.35154053 297.79939941 518.85791016 298.67871094 C527.31467775 303.61033884 535.79431756 308.50183712 544.27758789 313.38769531 C551.6373945 317.62914498 558.9796117 321.89970503 566.3125 326.1875 C574.53775172 330.99627347 582.79149559 335.75100214 591.07202148 340.46386719 C597.70035519 344.24221094 604.29126836 348.08205657 610.875 351.9375 C619.92201164 357.23459937 629.01738889 362.43824606 638.16357422 367.56225586 C642.36736483 369.9222315 646.54264034 372.31112832 650.6640625 374.8125 C657.69551336 379.0128396 664.86136782 382.9845194 672 387 C672 643.74 672 900.48 672 1165 C667.63841277 1164.12768255 665.59524775 1163.4099345 661.9296875 1161.2265625 C660.96111816 1160.65494385 659.99254883 1160.0833252 658.99462891 1159.49438477 C657.96515137 1158.87748779 656.93567383 1158.26059082 655.875 1157.625 C653.69287967 1156.33434569 651.51058622 1155.04398404 649.328125 1153.75390625 C648.24982422 1153.11340332 647.17152344 1152.47290039 646.06054688 1151.81298828 C641.93188442 1149.36727614 637.78137665 1146.96070788 633.625 1144.5625 C632.50170288 1143.91269165 632.50170288 1143.91269165 631.35571289 1143.24975586 C626.86859424 1140.65427025 622.37807486 1138.06470733 617.88671875 1135.4765625 C615.69528196 1134.21359465 613.50387636 1132.95057269 611.3125 1131.6875 C610.21156006 1131.05295898 609.11062012 1130.41841797 607.97631836 1129.76464844 C600.53282087 1125.47084558 593.10577481 1121.14970797 585.6875 1116.8125 C577.50988325 1112.03263947 569.30716219 1107.30027061 561.07739258 1102.61083984 C550.68990529 1096.68994275 540.33805383 1090.70739059 529.98583984 1084.72509766 C527.37271938 1083.2153422 524.75879065 1081.70700071 522.14453125 1080.19921875 C515.12238009 1076.14539766 508.11298892 1072.07066595 501.12109375 1067.96484375 C500.51376907 1067.60821152 499.9064444 1067.25157928 499.28071594 1066.88414001 C496.76125849 1065.40452406 494.24183111 1063.92485699 491.7225647 1062.44491577 C483.96870788 1057.89138805 476.19547876 1053.37596335 468.375 1048.9375 C456.86024709 1042.3986923 445.49251892 1035.61513607 434.11230469 1028.84619141 C429.0076881 1025.81817834 423.88707049 1022.81734033 418.75878906 1019.82958984 C414.10806238 1017.10806238 414.10806238 1017.10806238 413 1016 C412.89605191 1013.46187452 412.85793748 1010.95070287 412.8613348 1008.41184902 C412.85849258 1007.60365256 412.85565036 1006.79545609 412.85272202 1005.96276882 C412.84431448 1003.21950822 412.8431021 1000.47628951 412.84178162 997.73301697 C412.83722038 995.76049831 412.83222101 993.78798062 412.82681805 991.81546408 C412.81317757 986.36777328 412.80580158 980.92008875 412.79939139 975.47238529 C412.79141327 969.60799155 412.77770666 963.74361098 412.76467896 957.87922668 C412.74287933 947.7096949 412.72474765 937.54016182 412.70907402 927.37061882 C412.69262602 916.70111536 412.67417597 906.03161877 412.65294075 895.36212349 C412.65162314 894.69951847 412.65030554 894.03691345 412.648948 893.35422949 C412.64224621 889.98939692 412.63550757 886.62456442 412.62875474 883.25973196 C412.58095102 859.40680383 412.53777771 835.55386934 412.49731445 811.70092773 C412.45798657 788.52351417 412.41656941 765.34610588 412.37231445 742.16870117 C412.37095192 741.45467397 412.36958939 740.74064677 412.36818558 740.00498238 C412.35450058 732.83463677 412.340773 725.66429123 412.32701423 718.49394575 C412.29898528 703.88622818 412.27124055 689.27851007 412.2436676 674.67079163 C412.2423994 673.99910521 412.2411312 673.3274188 412.23982458 672.63537825 C412.15512297 627.7569274 412.07706831 582.87846453 412 538 C410.92041016 537.39309326 409.84082031 536.78618652 408.72851562 536.16088867 C407.28775679 535.35075514 405.84700179 534.54061481 404.40625 533.73046875 C403.69758789 533.33210815 402.98892578 532.93374756 402.25878906 532.52331543 C391.74206203 526.6091675 381.29022921 520.59101909 370.875 514.5 C361.9471948 509.27915635 352.985784 504.12011232 344 499 C334.28016411 493.46097632 324.59350075 487.86853767 314.9375 482.21875 C307.64099831 477.95116745 300.3249718 473.71851044 293 469.5 C284.65197491 464.69155242 276.31756768 459.86094289 268 455 C259.72222936 450.16323578 251.43059996 445.35132558 243.125 440.5625 C241.50899902 439.63074951 241.50899902 439.63074951 239.86035156 438.68017578 C234.35892355 435.50943029 228.85576481 432.34170789 223.3515625 429.17578125 C213.24367673 423.3580784 203.15172457 417.51917992 193.125 411.5625 C184.09358714 406.19731249 174.98738659 400.96925971 165.85916138 395.77139282 C158.23804448 391.43144931 150.64189803 387.05551447 143.09643555 382.58520508 C137.59642309 379.33324338 132.05242945 376.16148839 126.5 373 C119.4073827 368.96090802 112.34673739 364.87413719 105.3190918 360.72314453 C94.70236664 354.45527298 84.02730682 348.28609757 73.3125 342.1875 C65.89787812 337.96047257 58.53106625 333.65228028 51.16186523 329.34667969 C44.90889023 325.69395653 38.64693554 322.05754783 32.375 318.4375 C25.18809574 314.28428736 18.02561173 310.09038325 10.875 305.875 C9.90739746 305.30579834 8.93979492 304.73659668 7.94287109 304.15014648 C6.60603271 303.36039429 6.60603271 303.36039429 5.2421875 302.5546875 C4.4466748 302.08530762 3.65116211 301.61592773 2.83154297 301.13232422 C1 300 1 300 0 299 C-0.09704736 297.4048758 -0.1237162 295.80543188 -0.12304783 294.20735836 C-0.12503888 293.16383203 -0.12702993 292.12030571 -0.12908131 291.04515737 C-0.12471205 289.30443632 -0.12471205 289.30443632 -0.12025452 287.52854919 C-0.12110894 286.30671261 -0.12196337 285.08487603 -0.12284368 283.8260141 C-0.12421192 280.41918169 -0.12106427 277.01240603 -0.11606562 273.60558045 C-0.11176457 269.93753375 -0.1132073 266.26948894 -0.1139679 262.60144043 C-0.11449335 256.24118569 -0.11134431 249.88094118 -0.10573006 243.52068901 C-0.09761796 234.32472655 -0.09500014 225.12876905 -0.09374207 215.9328034 C-0.09155109 201.01452563 -0.08488976 186.09625332 -0.07543945 171.17797852 C-0.06626652 156.68253609 -0.05918511 142.18709514 -0.05493164 127.69165039 C-0.05466892 126.79880144 -0.05440619 125.90595248 -0.05413551 124.9860475 C-0.05283051 120.50708084 -0.05156679 116.02811417 -0.05032361 111.54914749 C-0.03994957 74.36609447 -0.02233001 37.18304766 0 0 Z " fill="#1C252C" transform="translate(0,389)"/>
</svg>
