<?xml version="1.0" encoding="UTF-8"?>
<svg version="1.1" xmlns="http://www.w3.org/2000/svg" width="2048" height="2048">
<path d="M0 0 C4.94092803 0.00916338 9.88138219 0.00230532 14.82226562 -0.02050781 C43.94392051 -0.15435061 72.63038579 0.56971467 101.5902853 3.74913311 C107.67411101 4.4028704 113.75434824 4.82490276 119.8657999 5.11794186 C126.07341056 5.42372827 132.1250656 6.291936 138.24780273 7.32104492 C140.50674589 7.68539059 142.76586303 8.04865912 145.02514648 8.41088867 C146.1232666 8.58861816 147.22138672 8.76634766 148.3527832 8.94946289 C152.8304284 9.6564595 157.31921613 10.26919817 161.81030273 10.88354492 C192.02467195 15.11261682 221.89425502 21.11529627 251.49780273 28.44604492 C253.13570718 28.84626113 254.77371922 29.24603741 256.41186523 29.64526367 C262.18525036 31.06271962 267.85635349 32.56297876 273.49780273 34.44604492 C274.9296743 34.78339686 276.36717097 35.09817988 277.81030273 35.38354492 C280.96104881 36.05380414 283.95507653 36.88932151 286.99780273 37.94604492 C289.84226618 38.93160516 292.60992113 39.72760953 295.56030273 40.32104492 C308.11650621 42.97131624 320.35779833 47.69299044 332.50415039 51.77905273 C334.21168656 52.35032249 335.92276768 52.91097744 337.63452148 53.46948242 C347.01730979 56.53164764 356.25198623 59.99703914 365.49780273 63.44604492 C366.19236572 63.70385742 366.88692871 63.96166992 367.60253906 64.22729492 C371.99024723 65.86150585 376.34293059 67.56894275 380.68530273 69.32104492 C385.56392196 71.28548265 390.45599293 73.20346418 395.37280273 75.07104492 C400.49811704 77.03366528 405.51368589 79.15107372 410.49780273 81.44604492 C416.40335017 84.15467354 422.32090405 86.80201371 428.31030273 89.32104492 C434.26028669 91.85625548 440.02438483 94.65753839 445.78686523 97.59057617 C449.87613814 99.65732876 454.02993612 101.57918569 458.18530273 103.50854492 C463.71627225 106.088646 469.12684404 108.78397273 474.45483398 111.76635742 C478.45623938 113.9750921 482.50927698 116.0800911 486.56030273 118.19604492 C495.22434893 122.73663898 503.79050932 127.4363517 512.3190918 132.22583008 C514.497172 133.44569167 516.68039748 134.65586024 518.86499023 135.86401367 C525.95101791 139.79508546 532.81629974 143.85080715 539.49780273 148.44604492 C543.27091618 150.8928019 547.11253513 153.22219145 550.98217773 155.51245117 C557.60931976 159.44098992 564.10882283 163.40562794 570.34936523 167.93823242 C572.66780367 169.56535467 575.06878862 170.99013353 577.49780273 172.44604492 C579.15378946 173.57715471 580.79959467 174.72330334 582.43530273 175.88354492 C585.02550256 177.71844084 587.6214404 179.52800501 590.26733398 181.28198242 C595.10326846 184.52153224 599.83012608 187.91272801 604.57202148 191.2878418 C605.30549805 191.80797852 606.03897461 192.32811523 606.79467773 192.86401367 C607.78999512 193.57207153 607.78999512 193.57207153 608.80541992 194.29443359 C610.50075853 195.50312669 610.50075853 195.50312669 612.49780273 196.44604492 C612.49780273 197.10604492 612.49780273 197.76604492 612.49780273 198.44604492 C613.21967773 198.69483398 613.94155273 198.94362305 614.68530273 199.19995117 C617.76675343 200.56520502 619.9204827 202.22101233 622.49780273 204.38354492 C624.98320739 206.46118788 627.33902279 208.35129677 630.12280273 210.01245117 C632.33721734 211.34911262 633.70119144 212.62268507 635.49780273 214.44604492 C638.10321568 216.40272051 640.72703727 218.32438538 643.37866211 220.2175293 C644.78677484 221.24739441 646.14686062 222.34225191 647.49780273 223.44604492 C647.49780273 224.10604492 647.49780273 224.76604492 647.49780273 225.44604492 C648.30217773 225.73479492 649.10655273 226.02354492 649.93530273 226.32104492 C652.49780273 227.44604492 652.49780273 227.44604492 653.49780273 229.44604492 C654.11655273 229.75541992 654.73530273 230.06479492 655.37280273 230.38354492 C657.63419886 231.51424299 658.72072361 232.66079532 660.49780273 234.44604492 C662.25582194 235.91980042 664.02813882 237.37658011 665.81030273 238.82104492 C666.78225586 239.61381836 667.75420898 240.4065918 668.75561523 241.22338867 C670.34863848 242.51459982 671.94559561 243.80104422 673.55249023 245.07495117 C674.90228873 246.15672748 676.20686349 247.29466668 677.49780273 248.44604492 C677.49780273 249.10604492 677.49780273 249.76604492 677.49780273 250.44604492 C678.58061523 250.78635742 678.58061523 250.78635742 679.68530273 251.13354492 C683.06212691 252.7093962 685.05547313 254.65481109 687.49780273 257.44604492 C687.49780273 258.10604492 687.49780273 258.76604492 687.49780273 259.44604492 C688.58061523 259.78635742 688.58061523 259.78635742 689.68530273 260.13354492 C693.06362601 261.71009578 694.93577011 263.75591067 697.49780273 266.44604492 C698.73530273 267.43604492 698.73530273 267.43604492 699.99780273 268.44604492 C702.70865054 270.61472316 705.05693553 272.97740335 707.49780273 275.44604492 C709.17959465 277.1232221 710.86174189 278.80004303 712.54418945 280.4765625 C717.39942177 285.31545051 722.25210748 290.15688385 727.10334587 294.99977589 C730.02826431 297.91947883 732.95411109 300.83823881 735.88208008 303.75488281 C738.73003523 306.59189932 741.5754743 309.43141787 744.4192543 312.27261925 C745.49551835 313.34705199 746.57265412 314.42061234 747.6507225 315.49323463 C754.49397662 322.30327492 761.03838489 329.25005993 767.18530273 336.69604492 C769.41468836 339.4400079 769.41468836 339.4400079 771.81030273 341.69604492 C773.49780273 343.44604492 773.49780273 343.44604492 773.49780273 345.44604492 C774.33311523 345.75541992 774.33311523 345.75541992 775.18530273 346.07104492 C778.46792645 348.02287524 780.20453519 350.38835487 782.49780273 353.44604492 C782.49780273 354.10604492 782.49780273 354.76604492 782.49780273 355.44604492 C783.48780273 355.77604492 784.47780273 356.10604492 785.49780273 356.44604492 C787.25085701 358.53933012 788.8874346 360.62336606 790.49780273 362.82104492 C794.19524153 367.89439343 794.19524153 367.89439343 798.49780273 372.44604492 C802.38351702 376.10318778 802.38351702 376.10318778 803.49780273 379.44604492 C804.17842773 380.12666992 804.85905273 380.80729492 805.56030273 381.50854492 C806.19967773 382.14791992 806.83905273 382.78729492 807.49780273 383.44604492 C807.49780273 384.10604492 807.49780273 384.76604492 807.49780273 385.44604492 C808.15780273 385.44604492 808.81780273 385.44604492 809.49780273 385.44604492 C813.36970259 389.72845946 816.57673427 394.48022853 819.49780273 399.44604492 C819.91416992 399.85338867 820.33053711 400.26073242 820.75952148 400.68041992 C823.25366566 403.21379782 825.38835707 406.01363917 827.56030273 408.82104492 C828.00696289 409.3856543 828.45362305 409.95026367 828.91381836 410.53198242 C831.37032182 413.70450708 833.23285769 416.62977005 834.49780273 420.44604492 C835.15780273 420.44604492 835.81780273 420.44604492 836.49780273 420.44604492 C837.90520427 422.42113783 839.20810448 424.39688342 840.49780273 426.44604492 C841.20420898 427.48245117 841.91061523 428.51885742 842.63842773 429.58666992 C843.33452148 430.61276367 844.03061523 431.63885742 844.74780273 432.69604492 C845.45420898 433.73245117 846.16061523 434.76885742 846.88842773 435.83666992 C848.49780273 438.44604492 848.49780273 438.44604492 848.49780273 440.44604492 C849.48780273 440.77604492 850.47780273 441.10604492 851.49780273 441.44604492 C852.99780273 443.33666992 852.99780273 443.33666992 854.49780273 445.69604492 C854.99280273 446.46432617 855.48780273 447.23260742 855.99780273 448.02416992 C857.0042947 449.64923508 857.99376395 451.28495804 858.96655273 452.93041992 C860.54286056 455.52006849 862.23884551 457.97733302 863.99780273 460.44604492 C866.32136984 463.70719174 868.45587979 467.00250573 870.49780273 470.44604492 C872.09183492 473.01489188 873.70264838 475.57320651 875.31030273 478.13354492 C878.57722552 483.34967474 881.81783652 488.57693045 884.96264648 493.86791992 C886.11312236 495.80001682 887.27365869 497.72612919 888.43920898 499.64916992 C896.73217687 513.33692368 905.04506399 527.09764077 912.01733398 541.51245117 C913.8504928 545.14491099 915.85557942 548.66347704 917.87280273 552.19604492 C924.79164223 564.373029 930.81084445 576.88736919 936.44116211 589.70874023 C938.24859173 593.80087899 940.15187988 597.62883519 942.49780273 601.44604492 C943.13827906 602.93090432 943.74250048 604.43190558 944.31030273 605.94604492 C945.89396538 610.02352115 947.64310267 613.98436822 949.49780273 617.94604492 C951.65076897 622.55954401 953.65483153 627.18874266 955.50561523 631.93041992 C956.60771185 634.72471213 957.76870225 637.49058601 958.93530273 640.25854492 C962.68298788 649.22539895 966.11302919 658.30674464 969.40405273 667.44995117 C970.46620873 670.35949992 971.56028492 673.25590354 972.66015625 676.15136719 C975.57999446 683.85330262 978.27945296 691.60518177 980.8371582 699.4362793 C981.54974476 701.60405925 982.27443331 703.76752515 983.00170898 705.93041992 C986.97724028 717.75597269 990.84478246 729.54654499 993.78295898 741.68041992 C994.61071977 744.88290428 995.65778441 747.96871477 996.74389648 751.09057617 C997.95024747 754.85964168 998.83965354 758.70233053 999.75170898 762.55151367 C1000.4661614 765.47378062 1000.4661614 765.47378062 1001.49389648 768.37573242 C1002.57679336 771.68762715 1003.30373305 774.96977826 1003.99780273 778.38354492 C1004.75446956 782.01858756 1005.53201554 785.56478347 1006.56030273 789.13354492 C1007.61230045 792.8506035 1008.24931405 796.56005318 1008.90820312 800.36303711 C1009.46799382 803.29017453 1010.15537939 806.14131459 1010.90795898 809.02416992 C1012.49986849 815.3138823 1013.79165304 821.63490463 1014.99780273 828.00854492 C1015.21283447 829.13389648 1015.42786621 830.25924805 1015.64941406 831.41870117 C1017.07536605 838.96943603 1018.38204599 846.53071538 1019.50952148 854.13183594 C1020.06585369 857.86230415 1020.71239242 861.54692821 1021.48608398 865.23901367 C1022.63674208 870.87805059 1023.32789396 876.54542084 1023.99780273 882.25854492 C1025.11829784 891.59377216 1025.11829784 891.59377216 1026.56030273 900.88354492 C1027.65970525 907.77733941 1028.15548659 914.71305321 1028.66015625 921.67123413 C1029.09513719 927.62362522 1029.59836448 933.55713316 1030.24243164 939.49072266 C1032.90180845 964.95270732 1032.99363408 990.36729044 1032.94384766 1015.94824219 C1032.93468427 1020.88917022 1032.94154233 1025.82962438 1032.96435547 1030.77050781 C1033.09819827 1059.8921627 1032.37413299 1088.57862798 1029.19471455 1117.53852749 C1028.54097726 1123.62235319 1028.1189449 1129.70259043 1027.8259058 1135.81404209 C1027.52011938 1142.02165275 1026.65191165 1148.07330779 1025.62280273 1154.19604492 C1025.25845706 1156.45498808 1024.89518853 1158.71410522 1024.53295898 1160.97338867 C1024.35522949 1162.07150879 1024.1775 1163.16962891 1023.99438477 1164.30102539 C1023.28738816 1168.77867059 1022.67464949 1173.26745832 1022.06030273 1177.75854492 C1017.83123084 1207.97291414 1011.82855139 1237.84249721 1004.49780273 1267.44604492 C1004.09758653 1269.08394937 1003.69781024 1270.7219614 1003.29858398 1272.36010742 C1001.88112803 1278.13349255 1000.3808689 1283.80459568 998.49780273 1289.44604492 C998.1604508 1290.87791648 997.84566777 1292.31541316 997.56030273 1293.75854492 C996.89004352 1296.909291 996.05452614 1299.90331872 994.99780273 1302.94604492 C994.0122425 1305.79050837 993.21623812 1308.55816332 992.62280273 1311.50854492 C989.97253141 1324.0647484 985.25085721 1336.30604052 981.16479492 1348.45239258 C980.59352517 1350.15992875 980.03287021 1351.87100987 979.47436523 1353.58276367 C976.41220001 1362.96555198 972.94680852 1372.20022842 969.49780273 1381.44604492 C969.23999023 1382.14060791 968.98217773 1382.8351709 968.71655273 1383.55078125 C967.08234181 1387.93848941 965.37490491 1392.29117278 963.62280273 1396.63354492 C961.658365 1401.51216414 959.74038348 1406.40423512 957.87280273 1411.32104492 C955.91018238 1416.44635923 953.79277394 1421.46192807 951.49780273 1426.44604492 C948.78917411 1432.35159236 946.14183395 1438.26914624 943.62280273 1444.25854492 C941.08300563 1450.21929322 938.27561989 1455.99327183 935.33764648 1461.76635742 C933.36000282 1465.67940996 931.5264083 1469.65495846 929.68530273 1473.63354492 C923.79994719 1486.26919643 917.28556081 1498.56424363 910.15405273 1510.53979492 C907.59015803 1515.0387045 905.34117398 1519.68146615 903.05249023 1524.32495117 C901.32280312 1527.79736324 899.48406103 1531.11425682 897.49780273 1534.44604492 C897.07112305 1535.1653418 896.64444336 1535.88463867 896.20483398 1536.62573242 C892.78741776 1542.36112802 889.2921352 1548.04770336 885.78295898 1553.72729492 C884.06749039 1556.51004702 882.37158205 1559.3041178 880.68139648 1562.10229492 C880.19566162 1562.9040918 879.70992676 1563.70588867 879.20947266 1564.53198242 C878.25498267 1566.10839748 877.3031984 1567.68645487 876.35449219 1569.26635742 C873.95293233 1573.22567402 871.44497531 1576.86181976 868.49780273 1580.44604492 C867.53521868 1582.14661008 866.57361298 1583.84782239 865.63061523 1585.55932617 C864.38081762 1587.64088564 862.97858515 1589.522516 861.49780273 1591.44604492 C858.78989776 1594.97040366 856.65525342 1598.56263368 854.49780273 1602.44604492 C853.24182821 1604.53779661 851.94261617 1606.47146656 850.49780273 1608.44604492 C849.83780273 1608.44604492 849.17780273 1608.44604492 848.49780273 1608.44604492 C848.23870117 1609.16791992 847.97959961 1609.88979492 847.71264648 1610.63354492 C846.44708312 1613.56346653 844.93359371 1615.86775196 843.06030273 1618.44604492 C841.2496315 1620.94891661 839.52275216 1623.40338331 837.96264648 1626.07104492 C836.61556782 1628.25510846 835.31708674 1629.67270243 833.49780273 1631.44604492 C832.2232854 1633.13616573 830.9758516 1634.84686432 829.74780273 1636.57104492 C826.54865879 1641.02382752 823.25421016 1645.37476177 819.84545898 1649.66870117 C818.43888424 1651.41050516 818.43888424 1651.41050516 817.49780273 1653.44604492 C816.83780273 1653.44604492 816.17780273 1653.44604492 815.49780273 1653.44604492 C815.25030273 1653.98229492 815.00280273 1654.51854492 814.74780273 1655.07104492 C813.19127737 1658.02844312 811.463446 1660.74328543 809.49780273 1663.44604492 C808.83780273 1663.44604492 808.17780273 1663.44604492 807.49780273 1663.44604492 C807.09561523 1664.59073242 807.09561523 1664.59073242 806.68530273 1665.75854492 C805.50631751 1668.42677463 804.59463176 1669.51051043 802.49780273 1671.44604492 C801.92030273 1672.16791992 801.34280273 1672.88979492 800.74780273 1673.63354492 C798.94526626 1675.88671551 797.10045212 1678.04096631 795.18530273 1680.19604492 C791.90426616 1683.90135347 788.91674484 1687.77782129 785.97827148 1691.75854492 C785.24543945 1692.59385742 785.24543945 1692.59385742 784.49780273 1693.44604492 C783.83780273 1693.44604492 783.17780273 1693.44604492 782.49780273 1693.44604492 C782.27092773 1694.16791992 782.04405273 1694.88979492 781.81030273 1695.63354492 C780.23445145 1699.0103691 778.28903657 1701.00371532 775.49780273 1703.44604492 C774.83780273 1703.44604492 774.17780273 1703.44604492 773.49780273 1703.44604492 C773.27092773 1704.16791992 773.04405273 1704.88979492 772.81030273 1705.63354492 C771.2051675 1709.07312042 769.2767767 1710.84830839 766.49780273 1713.44604492 C765.20025919 1714.71087728 763.90907091 1715.98224781 762.62280273 1717.25854492 C762.00663086 1717.86311523 761.39045898 1718.46768555 760.75561523 1719.09057617 C758.92178061 1721.00372891 757.2037764 1722.94583247 755.48339844 1724.95825195 C751.02962788 1730.05901275 746.26234833 1734.82507488 741.47045898 1739.60620117 C740.51299249 1740.56434352 739.55567429 1741.52263409 738.59849548 1742.48106384 C736.60406527 1744.47695779 734.60786533 1746.47105944 732.61035156 1748.46386719 C730.07105875 1750.99746356 727.53628371 1753.53552476 725.00283146 1756.07495975 C723.03048089 1758.05095195 721.05572011 1760.02452172 719.08025932 1761.9974041 C717.69653646 1763.38015091 716.31479959 1764.76488423 714.93312073 1766.14967346 C708.94254239 1772.11823602 702.76956248 1777.75408108 696.24780273 1783.13354492 C693.50383976 1785.36293055 693.50383976 1785.36293055 691.24780273 1787.75854492 C689.49780273 1789.44604492 689.49780273 1789.44604492 687.49780273 1789.44604492 C687.29155273 1790.00291992 687.08530273 1790.55979492 686.87280273 1791.13354492 C684.92097242 1794.41616864 682.55549279 1796.15277738 679.49780273 1798.44604492 C678.83780273 1798.44604492 678.17780273 1798.44604492 677.49780273 1798.44604492 C677.16780273 1799.43604492 676.83780273 1800.42604492 676.49780273 1801.44604492 C674.42358398 1803.31323242 674.42358398 1803.31323242 671.81030273 1805.32104492 C670.90538086 1806.02487305 670.00045898 1806.72870117 669.06811523 1807.45385742 C667.79581055 1808.43999023 667.79581055 1808.43999023 666.49780273 1809.44604492 C665.38795954 1810.35583055 664.28256636 1811.27112637 663.18530273 1812.19604492 C660.6512 1814.31761931 658.07841372 1816.38155614 655.49780273 1818.44604492 C654.97831055 1818.89463867 654.45881836 1819.34323242 653.92358398 1819.80541992 C649.70004993 1823.44604492 649.70004993 1823.44604492 647.49780273 1823.44604492 C647.49780273 1824.10604492 647.49780273 1824.76604492 647.49780273 1825.44604492 C645.81811523 1826.95385742 645.81811523 1826.95385742 643.62280273 1828.57104492 C642.54385742 1829.37928711 642.54385742 1829.37928711 641.44311523 1830.20385742 C639.49780273 1831.44604492 639.49780273 1831.44604492 637.49780273 1831.44604492 C637.49780273 1832.10604492 637.49780273 1832.76604492 637.49780273 1833.44604492 C636.16791558 1834.35596771 634.83010533 1835.25536145 633.46655273 1836.11401367 C631.06600492 1837.73819384 628.86448525 1839.54661064 626.62280273 1841.38354492 C622.95722459 1844.35802613 619.27387652 1846.97846154 615.18920898 1849.34057617 C613.45539989 1850.39126456 613.45539989 1850.39126456 612.07592773 1851.86791992 C608.68514886 1855.25869879 604.4435653 1857.74598967 600.49780273 1860.44604492 C599.5484082 1861.11120117 599.5484082 1861.11120117 598.57983398 1861.78979492 C594.73775809 1864.44604492 594.73775809 1864.44604492 592.49780273 1864.44604492 C592.16780273 1865.43604492 591.83780273 1866.42604492 591.49780273 1867.44604492 C589.60717773 1868.94604492 589.60717773 1868.94604492 587.24780273 1870.44604492 C586.47952148 1870.94104492 585.71124023 1871.43604492 584.91967773 1871.94604492 C583.29461258 1872.95253689 581.65888962 1873.94200613 580.01342773 1874.91479492 C577.42377917 1876.49110275 574.96651463 1878.18708769 572.49780273 1879.94604492 C569.23665592 1882.26961203 565.94134192 1884.40412198 562.49780273 1886.44604492 C559.92895578 1888.0400771 557.37064115 1889.65089057 554.81030273 1891.25854492 C549.59417291 1894.52546771 544.36691721 1897.7660787 539.07592773 1900.91088867 C537.14383084 1902.06136455 535.21771847 1903.22190087 533.29467773 1904.38745117 C519.60692398 1912.68041906 505.84620689 1920.99330618 491.43139648 1927.96557617 C487.79893666 1929.79873499 484.28037062 1931.80382161 480.74780273 1933.82104492 C468.57081866 1940.73988442 456.05647847 1946.75908664 443.23510742 1952.3894043 C439.14296867 1954.19683392 435.31501247 1956.10012206 431.49780273 1958.44604492 C430.01294333 1959.08652125 428.51194208 1959.69074267 426.99780273 1960.25854492 C422.9203265 1961.84220757 418.95947944 1963.59134486 414.99780273 1965.44604492 C410.38430365 1967.59901116 405.755105 1969.60307371 401.01342773 1971.45385742 C398.21913553 1972.55595404 395.45326165 1973.71694444 392.68530273 1974.88354492 C383.71844871 1978.63123007 374.63710302 1982.06127138 365.49389648 1985.35229492 C362.58434774 1986.41445092 359.68794412 1987.50852711 356.79248047 1988.60839844 C349.09054503 1991.52823665 341.33866588 1994.22769515 333.50756836 1996.78540039 C331.33978841 1997.49798695 329.17632251 1998.2226755 327.01342773 1998.94995117 C315.16902444 2002.93181966 303.36369793 2006.79223952 291.20874023 2009.72729492 C288.17246192 2010.53230243 285.32964047 2011.60291156 282.41577148 2012.76245117 C279.60909719 2013.76279333 276.74388277 2014.31801991 273.82983398 2014.91870117 C271.44114508 2015.45885695 269.14513905 2016.14602707 266.81030273 2016.88354492 C262.93557218 2018.07915809 259.06561017 2019.00205132 255.09545898 2019.82495117 C247.57489571 2021.41275115 240.10111462 2023.17166078 232.62280273 2024.94604492 C223.07265202 2027.19267575 213.54217957 2029.39710166 203.8659668 2031.04077148 C200.85294493 2031.55640203 197.8436131 2032.09203159 194.83374023 2032.62573242 C183.01629724 2034.70754157 171.20031216 2036.72554627 159.31054688 2038.35009766 C154.63154696 2038.99050555 149.9672163 2039.68345653 145.30639648 2040.44604492 C132.76235857 2042.48974179 120.32668085 2044.06154705 107.64501953 2044.91064453 C102.86137231 2045.24819742 98.09864124 2045.67836232 93.32958984 2046.18066406 C67.37774188 2048.81222422 41.49218906 2048.90939024 15.42578125 2048.8371582 C9.18494314 2048.82005834 2.94448884 2048.83022297 -3.29633617 2048.8475008 C-29.02561027 2048.90768422 -54.48376215 2048.58672448 -80.07562256 2045.79679871 C-84.59370229 2045.33431541 -89.11622261 2045.00905772 -93.64736938 2044.70504761 C-105.41034636 2043.91272783 -116.95646602 2042.28147309 -128.58813477 2040.38745117 C-133.44543073 2039.59796694 -138.30107643 2038.94117996 -143.18969727 2038.38354492 C-149.39561073 2037.64505418 -155.44267685 2036.50622353 -161.55688477 2035.22338867 C-165.82897937 2034.35195031 -170.12853075 2033.71511306 -174.43969727 2033.07104492 C-192.45072549 2030.32999617 -210.22493915 2026.14373788 -227.96411133 2022.0324707 C-230.42073996 2021.46486566 -232.87917019 2020.90577419 -235.33813477 2020.34838867 C-241.7452844 2018.88452392 -248.05809974 2017.39079872 -254.25219727 2015.16479492 C-258.25755736 2013.88530489 -262.37779366 2013.07046453 -266.48657227 2012.19213867 C-269.30552004 2011.4947047 -271.82085191 2010.54356731 -274.50219727 2009.44604492 C-276.56205394 2009.00705907 -278.6219259 2008.56814477 -280.68188477 2008.12963867 C-291.74114276 2005.4490706 -302.5531149 2001.4710354 -313.33032227 1997.84448242 C-315.77409694 1997.02220604 -318.22010289 1996.21440542 -320.67407227 1995.42260742 C-327.51062676 1993.21300279 -334.17588236 1990.65332849 -340.85620117 1988.01708984 C-345.1626621 1986.3262737 -349.472432 1984.74305576 -353.87719727 1983.32104492 C-358.84868395 1981.71403066 -363.62013301 1979.78495585 -368.42407227 1977.73510742 C-371.65560473 1976.38180068 -374.91380566 1975.12533639 -378.18969727 1973.88354492 C-383.37996534 1971.90247946 -388.45713593 1969.76907844 -393.50219727 1967.44604492 C-399.40774471 1964.7374163 -405.32529858 1962.09007614 -411.31469727 1959.57104492 C-417.27544556 1957.03124782 -423.04942417 1954.22386207 -428.82250977 1951.28588867 C-432.73555397 1949.30824923 -436.71102211 1947.47444502 -440.68969727 1945.63354492 C-450.1371494 1941.23837411 -459.32655761 1936.37880532 -468.50219727 1931.44604492 C-469.49606445 1930.91237305 -470.48993164 1930.37870117 -471.51391602 1929.82885742 C-474.18425811 1928.3812294 -476.84476626 1926.91725002 -479.50219727 1925.44604492 C-480.46561035 1924.91309814 -480.46561035 1924.91309814 -481.44848633 1924.36938477 C-486.03488474 1921.83096807 -490.61616976 1919.28350613 -495.19458008 1916.73071289 C-497.42782434 1915.48744889 -499.66399866 1914.24959996 -501.90063477 1913.01245117 C-508.19736554 1909.51685835 -514.37408534 1905.99738452 -520.30688477 1901.90307617 C-522.93675401 1900.15762915 -525.64302743 1898.58541269 -528.37719727 1897.00854492 C-536.89066839 1892.09277162 -545.1049814 1886.82029526 -553.11547852 1881.12182617 C-557.05676241 1878.35454174 -561.06572169 1875.70663336 -565.15063477 1873.15698242 C-565.76293945 1872.7728418 -566.37524414 1872.38870117 -567.00610352 1871.99291992 C-568.27385755 1871.19891948 -569.54480659 1870.41000176 -570.81860352 1869.62573242 C-572.41435299 1868.61860695 -573.96328209 1867.53804227 -575.50219727 1866.44604492 C-575.50219727 1865.78604492 -575.50219727 1865.12604492 -575.50219727 1864.44604492 C-576.22407227 1864.18694336 -576.94594727 1863.9278418 -577.68969727 1863.66088867 C-580.61961888 1862.39532531 -582.92390431 1860.8818359 -585.50219727 1859.00854492 C-588.06755271 1857.15267059 -590.55962425 1855.41342321 -593.31469727 1853.84838867 C-594.03657227 1853.38561523 -594.75844727 1852.9228418 -595.50219727 1852.44604492 C-595.50219727 1851.78604492 -595.50219727 1851.12604492 -595.50219727 1850.44604492 C-596.58500977 1850.07286133 -596.58500977 1850.07286133 -597.68969727 1849.69213867 C-600.77114796 1848.32688482 -602.92487723 1846.67107751 -605.50219727 1844.50854492 C-607.98760193 1842.43090196 -610.34341733 1840.54079307 -613.12719727 1838.87963867 C-615.34161187 1837.54297722 -616.70558597 1836.26940477 -618.50219727 1834.44604492 C-621.10761021 1832.48936934 -623.7314318 1830.56770446 -626.38305664 1828.67456055 C-627.79116938 1827.64469543 -629.15125515 1826.54983794 -630.50219727 1825.44604492 C-630.50219727 1824.78604492 -630.50219727 1824.12604492 -630.50219727 1823.44604492 C-631.30657227 1823.15729492 -632.11094727 1822.86854492 -632.93969727 1822.57104492 C-635.50219727 1821.44604492 -635.50219727 1821.44604492 -636.50219727 1819.44604492 C-637.12094727 1819.13666992 -637.73969727 1818.82729492 -638.37719727 1818.50854492 C-640.6385934 1817.37784686 -641.72511814 1816.23129452 -643.50219727 1814.44604492 C-645.26021647 1812.97228942 -647.03253335 1811.51550973 -648.81469727 1810.07104492 C-650.27262695 1808.88188477 -650.27262695 1808.88188477 -651.76000977 1807.66870117 C-653.35303301 1806.37749003 -654.94999014 1805.09104563 -656.55688477 1803.81713867 C-657.90668327 1802.73536236 -659.21125803 1801.59742316 -660.50219727 1800.44604492 C-660.50219727 1799.78604492 -660.50219727 1799.12604492 -660.50219727 1798.44604492 C-661.22407227 1798.21916992 -661.94594727 1797.99229492 -662.68969727 1797.75854492 C-666.06652144 1796.18269364 -668.05986766 1794.23727876 -670.50219727 1791.44604492 C-670.50219727 1790.78604492 -670.50219727 1790.12604492 -670.50219727 1789.44604492 C-671.22407227 1789.21916992 -671.94594727 1788.99229492 -672.68969727 1788.75854492 C-676.06802054 1787.18199406 -677.94016465 1785.13617917 -680.50219727 1782.44604492 C-681.32719727 1781.78604492 -682.15219727 1781.12604492 -683.00219727 1780.44604492 C-685.71370035 1778.27684245 -688.06092692 1775.91580565 -690.50219727 1773.44604492 C-691.36006836 1772.58817383 -692.21793945 1771.73030273 -693.10180664 1770.84643555 C-713.50219727 1750.44604492 -713.50219727 1750.44604492 -716.02026367 1747.92578125 C-718.52739483 1745.42086967 -721.04147454 1742.92310952 -723.55688477 1740.42651367 C-725.00308 1738.98770034 -726.44878871 1737.54840011 -727.89428711 1736.10888672 C-728.87840926 1735.12978725 -729.86342788 1734.15158797 -730.84936523 1733.17431641 C-737.63600378 1726.4454992 -744.10534783 1719.56683226 -750.18969727 1712.19604492 C-752.41908289 1709.45208195 -752.41908289 1709.45208195 -754.81469727 1707.19604492 C-756.50219727 1705.44604492 -756.50219727 1705.44604492 -756.50219727 1703.44604492 C-757.05907227 1703.23979492 -757.61594727 1703.03354492 -758.18969727 1702.82104492 C-761.47232098 1700.86921461 -763.20892972 1698.50373498 -765.50219727 1695.44604492 C-765.50219727 1694.78604492 -765.50219727 1694.12604492 -765.50219727 1693.44604492 C-766.49219727 1693.11604492 -767.48219727 1692.78604492 -768.50219727 1692.44604492 C-770.25525154 1690.35275972 -771.89182913 1688.26872378 -773.50219727 1686.07104492 C-777.19963607 1680.99769642 -777.19963607 1680.99769642 -781.50219727 1676.44604492 C-785.38791155 1672.78890206 -785.38791155 1672.78890206 -786.50219727 1669.44604492 C-787.52313477 1668.42510742 -787.52313477 1668.42510742 -788.56469727 1667.38354492 C-789.20407227 1666.74416992 -789.84344727 1666.10479492 -790.50219727 1665.44604492 C-790.50219727 1664.78604492 -790.50219727 1664.12604492 -790.50219727 1663.44604492 C-791.16219727 1663.44604492 -791.82219727 1663.44604492 -792.50219727 1663.44604492 C-796.37409712 1659.16363038 -799.5811288 1654.41186132 -802.50219727 1649.44604492 C-802.91856445 1649.03870117 -803.33493164 1648.63135742 -803.76391602 1648.21166992 C-806.25806019 1645.67829202 -808.3927516 1642.87845067 -810.56469727 1640.07104492 C-811.01135742 1639.50643555 -811.45801758 1638.94182617 -811.91821289 1638.36010742 C-814.37471636 1635.18758277 -816.23725222 1632.26231979 -817.50219727 1628.44604492 C-818.16219727 1628.44604492 -818.82219727 1628.44604492 -819.50219727 1628.44604492 C-820.91235352 1626.46166992 -820.91235352 1626.46166992 -822.56469727 1623.69604492 C-826.5054585 1617.31184718 -830.96230346 1611.41105576 -835.50219727 1605.44604492 C-837.75988367 1602.38922694 -839.97270361 1599.33682292 -841.91625977 1596.06713867 C-843.50744687 1593.43736885 -845.21896132 1590.94883222 -847.00219727 1588.44604492 C-849.32508972 1585.18584499 -851.46175207 1581.88929618 -853.50219727 1578.44604492 C-854.66339429 1576.60924235 -855.83021381 1574.775984 -857.00219727 1572.94604492 C-859.22431891 1569.4764164 -861.39578237 1565.98709915 -863.50219727 1562.44604492 C-863.92758789 1561.73706055 -864.35297852 1561.02807617 -864.79125977 1560.29760742 C-865.76839677 1558.66904574 -866.74486591 1557.04008328 -867.72094727 1555.41088867 C-868.96641232 1553.33784486 -870.2168209 1551.26776666 -871.47094727 1549.19995117 C-879.81838914 1535.41481327 -888.18211932 1521.55886545 -895.22094727 1507.05151367 C-896.5392037 1504.37079098 -897.9398133 1501.75218327 -899.37719727 1499.13354492 C-900.12743164 1497.76456055 -900.12743164 1497.76456055 -900.89282227 1496.36791992 C-902.00185387 1494.35443536 -903.11679511 1492.34419833 -904.23657227 1490.33666992 C-909.41056624 1480.88664787 -913.93357907 1471.18317675 -918.37768555 1461.36962891 C-919.11414307 1459.7484314 -919.11414307 1459.7484314 -919.86547852 1458.09448242 C-920.51963745 1456.64307861 -920.51963745 1456.64307861 -921.18701172 1455.16235352 C-922.48410266 1452.48341648 -923.95256847 1449.98500621 -925.50219727 1447.44604492 C-926.14267359 1445.96118552 -926.74689501 1444.46018427 -927.31469727 1442.94604492 C-928.89835991 1438.86856869 -930.6474972 1434.90772163 -932.50219727 1430.94604492 C-934.6551635 1426.33254584 -936.65922606 1421.70334719 -938.51000977 1416.96166992 C-939.61210638 1414.16737771 -940.77309678 1411.40150383 -941.93969727 1408.63354492 C-945.68738241 1399.6666909 -949.11742372 1390.58534521 -952.40844727 1381.44213867 C-953.47060326 1378.53258992 -954.56467945 1375.63618631 -955.66455078 1372.74072266 C-958.58438899 1365.03878722 -961.28384749 1357.28690807 -963.84155273 1349.45581055 C-964.55413929 1347.2880306 -965.27882784 1345.1245647 -966.00610352 1342.96166992 C-969.98797201 1331.11726663 -973.84839186 1319.31194012 -976.78344727 1307.15698242 C-977.58845477 1304.12070411 -978.6590639 1301.27788266 -979.81860352 1298.36401367 C-980.81894568 1295.55733938 -981.37417225 1292.69212495 -981.97485352 1289.77807617 C-982.5150093 1287.38938727 -983.20217941 1285.09338124 -983.93969727 1282.75854492 C-985.13531043 1278.88381436 -986.05820367 1275.01385236 -986.88110352 1271.04370117 C-988.46890349 1263.5231379 -990.22781313 1256.04935681 -992.00219727 1248.57104492 C-994.24882809 1239.02089421 -996.45325401 1229.49042176 -998.09692383 1219.81420898 C-998.61255437 1216.80118712 -999.14818393 1213.79185528 -999.68188477 1210.78198242 C-1001.76369391 1198.96453943 -1003.78169862 1187.14855434 -1005.40625 1175.25878906 C-1006.04665789 1170.57978915 -1006.73960888 1165.91545849 -1007.50219727 1161.25463867 C-1009.54944676 1148.68785071 -1011.11506139 1136.23150474 -1011.96679688 1123.52709961 C-1012.29894146 1118.84409079 -1012.72649619 1114.18488578 -1013.23681641 1109.51806641 C-1015.95325353 1083.71243715 -1015.9643433 1057.94880459 -1015.89331055 1032.0222168 C-1015.87622004 1025.71297296 -1015.88636734 1019.40410903 -1015.90365314 1013.0948782 C-1015.96356246 987.2164769 -1015.66758254 961.60349902 -1012.85295105 935.86355591 C-1012.38959936 931.34896599 -1012.06488822 926.82988021 -1011.76119995 922.30210876 C-1010.96918656 910.53869885 -1009.33768962 898.99217037 -1007.44360352 887.36010742 C-1006.65411928 882.50281146 -1005.9973323 877.64716576 -1005.43969727 872.75854492 C-1004.70120652 866.55263146 -1003.56237587 860.50556534 -1002.27954102 854.39135742 C-1001.40810266 850.11926282 -1000.77126541 845.81971143 -1000.12719727 841.50854492 C-997.38614851 823.4975167 -993.19989022 805.72330303 -989.08862305 787.98413086 C-988.52101801 785.52750222 -987.96192653 783.069072 -987.40454102 780.61010742 C-985.94067626 774.20295779 -984.44695106 767.89014245 -982.22094727 761.69604492 C-980.94145724 757.69068483 -980.12661688 753.57044853 -979.24829102 749.46166992 C-978.55085705 746.64272215 -977.59971966 744.12739028 -976.50219727 741.44604492 C-976.06321142 739.38618824 -975.62429711 737.32631628 -975.18579102 735.26635742 C-972.50522294 724.20709943 -968.52718775 713.39512728 -964.90063477 702.61791992 C-964.07835838 700.17414524 -963.27055777 697.7281393 -962.47875977 695.27416992 C-960.26915514 688.43761543 -957.70948084 681.77235982 -955.07324219 675.09204102 C-953.38242604 670.78558009 -951.7992081 666.47581019 -950.37719727 662.07104492 C-948.770183 657.09955824 -946.84110819 652.32810917 -944.79125977 647.52416992 C-943.43795302 644.29263746 -942.18148873 641.03443653 -940.93969727 637.75854492 C-938.95863181 632.56827685 -936.82523078 627.49110626 -934.50219727 622.44604492 C-931.79356864 616.54049748 -929.14622848 610.62294361 -926.62719727 604.63354492 C-924.08740017 598.67279663 -921.28001442 592.89881801 -918.34204102 587.12573242 C-916.36440157 583.21268822 -914.53059736 579.23722008 -912.68969727 575.25854492 C-908.29452646 565.81109279 -903.43495767 556.62168458 -898.50219727 547.44604492 C-897.70168945 545.95524414 -897.70168945 545.95524414 -896.88500977 544.43432617 C-895.43738174 541.76398408 -893.97340236 539.10347592 -892.50219727 536.44604492 C-892.14689941 535.80376953 -891.79160156 535.16149414 -891.42553711 534.49975586 C-886.83026955 526.19704975 -882.2110475 517.90777468 -877.56469727 509.63354492 C-877.19948975 508.98232666 -876.83428223 508.3311084 -876.45800781 507.66015625 C-873.55057469 502.49221594 -870.51698304 497.43582988 -867.31469727 492.44604492 C-865.31569403 489.32048478 -863.33532571 486.18678612 -861.40844727 483.01635742 C-861.05935303 482.44272461 -860.71025879 481.8690918 -860.35058594 481.27807617 C-859.36314387 479.65087963 -858.37982848 478.02118099 -857.39672852 476.39135742 C-855.58677123 473.57752691 -853.60426224 471.04424946 -851.50219727 468.44604492 C-850.48647061 466.70026473 -849.47168457 464.95364563 -848.49047852 463.18823242 C-845.46185224 457.84923116 -841.73333478 452.91221429 -838.18579102 447.91088867 C-836.443884 445.4348182 -836.443884 445.4348182 -834.91235352 442.63745117 C-834.44700195 441.91428711 -833.98165039 441.19112305 -833.50219727 440.44604492 C-832.84219727 440.44604492 -832.18219727 440.44604492 -831.50219727 440.44604492 C-831.11354492 439.36323242 -831.11354492 439.36323242 -830.71704102 438.25854492 C-829.45147765 435.32862331 -827.93798824 433.02433788 -826.06469727 430.44604492 C-824.20882294 427.88068948 -822.46957555 425.38861794 -820.90454102 422.63354492 C-820.44176758 421.91166992 -819.97899414 421.18979492 -819.50219727 420.44604492 C-818.84219727 420.44604492 -818.18219727 420.44604492 -817.50219727 420.44604492 C-817.2534082 419.72416992 -817.00461914 419.00229492 -816.74829102 418.25854492 C-815.38303717 415.17709423 -813.72722986 413.02336496 -811.56469727 410.44604492 C-809.48705431 407.96064026 -807.59694541 405.60482486 -805.93579102 402.82104492 C-804.59912957 400.60663031 -803.32555711 399.24265621 -801.50219727 397.44604492 C-799.54552168 394.84063198 -797.62385681 392.21681038 -795.73071289 389.56518555 C-794.70084778 388.15707281 -793.60599028 386.79698704 -792.50219727 385.44604492 C-791.84219727 385.44604492 -791.18219727 385.44604492 -790.50219727 385.44604492 C-790.21344727 384.64166992 -789.92469727 383.83729492 -789.62719727 383.00854492 C-788.50219727 380.44604492 -788.50219727 380.44604492 -786.50219727 379.44604492 C-786.19282227 378.82729492 -785.88344727 378.20854492 -785.56469727 377.57104492 C-784.4339992 375.30964879 -783.28744687 374.22312404 -781.50219727 372.44604492 C-780.02844176 370.68802572 -778.57166207 368.91570884 -777.12719727 367.13354492 C-776.33442383 366.1615918 -775.54165039 365.18963867 -774.72485352 364.18823242 C-773.43364237 362.59520918 -772.14719797 360.99825205 -770.87329102 359.39135742 C-769.79151471 358.04155892 -768.65357551 356.73698416 -767.50219727 355.44604492 C-766.84219727 355.44604492 -766.18219727 355.44604492 -765.50219727 355.44604492 C-765.16188477 354.36323242 -765.16188477 354.36323242 -764.81469727 353.25854492 C-763.23884598 349.88172075 -761.2934311 347.88837453 -758.50219727 345.44604492 C-757.84219727 345.44604492 -757.18219727 345.44604492 -756.50219727 345.44604492 C-756.16188477 344.36323242 -756.16188477 344.36323242 -755.81469727 343.25854492 C-754.23814641 339.88022165 -752.19233152 338.00807754 -749.50219727 335.44604492 C-748.84219727 334.62104492 -748.18219727 333.79604492 -747.50219727 332.94604492 C-745.33351902 330.23519712 -742.97083884 327.88691212 -740.50219727 325.44604492 C-738.82502008 323.76425301 -737.14819916 322.08210576 -735.47167969 320.3996582 C-730.63279168 315.54442589 -725.79135834 310.69174017 -720.9484663 305.84050179 C-718.02876336 302.91558334 -715.11000337 299.98973657 -712.19335938 297.06176758 C-709.35634287 294.21381242 -706.51682432 291.36837335 -703.67562294 288.52459335 C-702.60119019 287.44832931 -701.52762985 286.37119354 -700.45500755 285.29312515 C-693.64496726 278.44987103 -686.69818226 271.90546277 -679.25219727 265.75854492 C-676.50823429 263.52915929 -676.50823429 263.52915929 -674.25219727 261.13354492 C-672.50219727 259.44604492 -672.50219727 259.44604492 -670.50219727 259.44604492 C-670.19282227 258.61073242 -670.19282227 258.61073242 -669.87719727 257.75854492 C-667.92536695 254.47592121 -665.55988732 252.73931246 -662.50219727 250.44604492 C-661.84219727 250.44604492 -661.18219727 250.44604492 -660.50219727 250.44604492 C-660.17219727 249.45604492 -659.84219727 248.46604492 -659.50219727 247.44604492 C-657.40891206 245.69299065 -655.32487613 244.05641305 -653.12719727 242.44604492 C-648.05384876 238.74860612 -648.05384876 238.74860612 -643.50219727 234.44604492 C-639.84505441 230.56033064 -639.84505441 230.56033064 -636.50219727 229.44604492 C-635.82157227 228.76541992 -635.14094727 228.08479492 -634.43969727 227.38354492 C-633.80032227 226.74416992 -633.16094727 226.10479492 -632.50219727 225.44604492 C-631.84219727 225.44604492 -631.18219727 225.44604492 -630.50219727 225.44604492 C-630.50219727 224.78604492 -630.50219727 224.12604492 -630.50219727 223.44604492 C-626.21978273 219.57414507 -621.46801366 216.36711339 -616.50219727 213.44604492 C-616.09485352 213.02967773 -615.68750977 212.61331055 -615.26782227 212.18432617 C-612.73444437 209.690182 -609.93460301 207.55549059 -607.12719727 205.38354492 C-606.56258789 204.93688477 -605.99797852 204.49022461 -605.41625977 204.0300293 C-602.24373511 201.57352583 -599.31847213 199.71098996 -595.50219727 198.44604492 C-595.50219727 197.78604492 -595.50219727 197.12604492 -595.50219727 196.44604492 C-593.52710436 195.03864339 -591.55135876 193.73574318 -589.50219727 192.44604492 C-588.46579102 191.73963867 -587.42938477 191.03323242 -586.36157227 190.30541992 C-585.33547852 189.60932617 -584.30938477 188.91323242 -583.25219727 188.19604492 C-582.21579102 187.48963867 -581.17938477 186.78323242 -580.11157227 186.05541992 C-577.50219727 184.44604492 -577.50219727 184.44604492 -575.50219727 184.44604492 C-575.17219727 183.45604492 -574.84219727 182.46604492 -574.50219727 181.44604492 C-572.61157227 179.94604492 -572.61157227 179.94604492 -570.25219727 178.44604492 C-569.48391602 177.95104492 -568.71563477 177.45604492 -567.92407227 176.94604492 C-566.29900711 175.93955295 -564.66328415 174.95008371 -563.01782227 173.97729492 C-560.4281737 172.4009871 -557.97090917 170.70500215 -555.50219727 168.94604492 C-552.2411018 166.6225144 -548.94664113 164.48644862 -545.50219727 162.44604492 C-542.95366473 160.87370043 -540.41572809 159.28447352 -537.87719727 157.69604492 C-537.16861572 157.25357422 -536.46003418 156.81110352 -535.72998047 156.35522461 C-531.69613856 153.83275868 -527.68519186 151.27899092 -523.68969727 148.69604492 C-519.21178598 145.82991195 -514.60734457 143.28363424 -509.92016602 140.77807617 C-507.35868017 139.41130583 -507.35868017 139.41130583 -504.50219727 137.44604492 C-500.01347049 134.45356041 -495.25621911 131.98932345 -490.50219727 129.44604492 C-488.56442126 128.40489179 -486.62693566 127.36319804 -484.68969727 126.32104492 C-483.60688477 125.73967773 -482.52407227 125.15831055 -481.40844727 124.55932617 C-478.379101 122.92621849 -475.36149453 121.27245509 -472.34594727 119.61401367 C-457.21431404 111.29816904 -442.05062793 103.44636837 -426.23803711 96.50195312 C-422.14634901 94.69486609 -418.31893446 92.79167737 -414.50219727 90.44604492 C-413.01733787 89.8055686 -411.51633661 89.20134718 -410.00219727 88.63354492 C-405.92472103 87.04988228 -401.96387397 85.30074498 -398.00219727 83.44604492 C-393.38869818 81.29307868 -388.75949953 79.28901613 -384.01782227 77.43823242 C-381.22353006 76.33613581 -378.45765618 75.17514541 -375.68969727 74.00854492 C-366.72284324 70.26085978 -357.64149755 66.83081846 -348.49829102 63.53979492 C-345.58874227 62.47763892 -342.69233865 61.38356273 -339.796875 60.28369141 C-332.09493957 57.3638532 -324.34306041 54.6643947 -316.51196289 52.10668945 C-314.34418294 51.3941029 -312.18071704 50.66941435 -310.01782227 49.94213867 C-298.1922695 45.96660738 -286.40169719 42.09906519 -274.26782227 39.16088867 C-271.06533791 38.33312789 -267.97952742 37.28606324 -264.85766602 36.19995117 C-261.0886005 34.99360019 -257.24591166 34.10419412 -253.39672852 33.19213867 C-250.49920494 32.48646808 -250.49920494 32.48646808 -247.7265625 31.48779297 C-244.50306956 30.44632675 -241.33572354 29.70925375 -238.01782227 29.03198242 C-231.96135774 27.76638142 -225.94301907 26.38431207 -219.92529297 24.94702148 C-200.6961262 20.36116237 -181.37335381 16.33778698 -161.81201172 13.43334961 C-158.08292745 12.8777966 -154.39985198 12.23114886 -150.70922852 11.45776367 C-145.07019159 10.30710557 -139.40282134 9.61595369 -133.68969727 8.94604492 C-124.35447003 7.82554981 -124.35447003 7.82554981 -115.06469727 6.38354492 C-108.17090278 5.2841424 -101.23518898 4.78836107 -94.27700806 4.28369141 C-88.32461697 3.84871047 -82.39110903 3.34548318 -76.45751953 2.70141602 C-50.99553487 0.0420392 -25.58095175 -0.04978642 0 0 Z " fill="#F8AE49" transform="translate(1015.502197265625,-0.446044921875)"/>
<path d="M0 0 C2 1 2 1 3.26171875 4.3671875 C3.74331469 5.86777308 4.21805734 7.3705681 4.6875 8.875 C6.79253979 15.41465695 9.02066126 21.88159557 11.4375 28.3125 C14.31191601 35.99517523 16.96662693 43.73588429 19.51538086 51.5324707 C22.47442522 60.55965493 25.77939697 69.4489819 29.14501953 78.33129883 C32.95794322 88.40277533 36.6133965 98.5148313 40.11791992 108.69750977 C42.19507982 114.72194636 44.3410872 120.71481004 46.5625 126.6875 C52.23365974 141.95306272 57.47546953 157.3704447 62.79541016 172.76098633 C65.92783482 181.81373405 69.10609728 190.8480673 72.41015625 199.83984375 C72.64444336 200.48276367 72.87873047 201.12568359 73.12011719 201.78808594 C73.77049819 203.57227641 74.42608615 205.35456637 75.08203125 207.13671875 C76 210 76 210 76 213 C85.65102325 210.75304753 95.10000211 207.92598715 104.57485962 205.04415894 C120.6611849 200.15443165 136.77775307 195.4209345 153 191 C154.02399902 190.72043457 155.04799805 190.44086914 156.10302734 190.15283203 C158.73516111 189.43451992 161.36748735 188.7169221 164 188 C163.19070837 191.38128077 162.08308486 194.50980302 160.8125 197.75 C158.85545442 202.77758261 156.94232232 207.81809975 155.0625 212.875 C153.11822404 218.09614556 151.09652859 223.27555102 149 228.4375 C146.84666954 233.74264434 144.87686881 239.09109983 143 244.5 C140.47753314 251.7636566 137.69461023 258.88081474 134.80175781 266.00634766 C132.40812407 271.95836139 130.11528813 277.95097606 127.80078125 283.93408203 C127.08965606 285.76869831 126.37332688 287.60129555 125.65625 289.43359375 C123.30972118 295.45785525 121.11478962 301.51679714 119 307.625 C117.36428225 312.34487318 115.66187297 316.92666889 113.5 321.4375 C110.87540859 326.93985885 109.0408324 332.64624494 107.23046875 338.45678711 C105.7991428 342.95800903 104.08479671 347.10436384 101.89379883 351.29125977 C96.95385023 360.73531883 98.87029951 371.92357822 100.25 382.125 C100.38277344 383.14851563 100.51554687 384.17203125 100.65234375 385.2265625 C101.8029363 393.92461992 103.14614001 402.59100372 104.51416016 411.25708008 C105.84686932 419.77402441 106.95935345 428.30626825 107.99389648 436.86401367 C108.60018464 441.86369426 109.25269727 446.84068786 110.0625 451.8125 C111.41236256 460.16122981 112.16495206 468.58733615 113 477 C115.09635486 477.21521707 115.09635486 477.21521707 116.6077472 475.6406498 C117.25099344 474.99664412 117.89423968 474.35263844 118.55697823 473.68911743 C119.29944018 472.95063757 120.04190214 472.21215771 120.80686295 471.45129967 C121.62591831 470.62641863 122.44497366 469.80153759 123.28884888 468.95166016 C124.15627083 468.08594706 125.02369278 467.22023396 125.91740024 466.32828712 C128.33367211 463.91475054 130.74535081 461.49678107 133.15524507 459.07688618 C135.75149435 456.47203131 138.35348836 453.87292648 140.95480347 451.27313232 C145.46414487 446.76484161 149.96979862 442.25289208 154.47299576 437.73846436 C160.98393406 431.21129888 167.50036245 424.68963751 174.01816092 418.16932321 C184.59170496 407.59139768 195.16077136 397.00900991 205.72705078 386.42382812 C215.99359299 376.13893883 226.26222554 365.85614405 236.53369141 355.57617188 C237.16640902 354.94292881 237.79912664 354.30968575 238.45101751 353.6572535 C241.62506497 350.48059604 244.79915373 347.30397985 247.97326303 344.12738419 C274.32191535 317.75798525 300.66331331 291.38134945 327 265 C328.14043146 268.42129438 327.8401528 269.33680622 326.84765625 272.70703125 C326.56986328 273.67044434 326.29207031 274.63385742 326.00585938 275.62646484 C325.53889648 277.20355225 325.53889648 277.20355225 325.0625 278.8125 C324.4058065 281.09194575 323.750935 283.371917 323.09765625 285.65234375 C322.75234863 286.85358887 322.40704102 288.05483398 322.05126953 289.29248047 C320.30001511 295.46864155 318.64752369 301.67049589 317 307.875 C316.66863037 309.12144287 316.33726074 310.36788574 315.99584961 311.65209961 C310.3251737 332.98310227 310.3251737 332.98310227 304.921875 354.3828125 C304.0930778 357.63478794 303.15269863 360.80649022 302.125 364 C299.18715748 373.44932929 296.58961454 383.037765 295 392.8125 C294.20746106 397.51863832 292.70315857 401.7026927 291 406.1484375 C289.5950991 410.15460021 288.73250759 414.22462145 287.82421875 418.3671875 C286.92929382 422.31164334 285.91702121 426.21763595 284.875 430.125 C284.45153708 431.7251848 284.02838514 433.32545192 283.60546875 434.92578125 C283.36231934 435.84568848 283.11916992 436.7655957 282.86865234 437.71337891 C282.58199707 438.79796387 282.2953418 439.88254883 282 441 C281.82454651 441.66255798 281.64909302 442.32511597 281.46832275 443.00775146 C280.2409085 447.64509831 279.02225697 452.28464275 277.81182861 456.92645264 C277.39763988 458.50939137 276.98079495 460.09163761 276.56121826 461.67315674 C275.96491996 463.92229182 275.37799809 466.17369253 274.79296875 468.42578125 C274.61196121 469.10013718 274.43095367 469.7744931 274.24446106 470.46928406 C272.32097164 477.96088403 272.76592333 482.43563581 276.625 489.0625 C277.35666256 490.38143101 278.08578628 491.70177329 278.8125 493.0234375 C279.17859375 493.6844043 279.5446875 494.34537109 279.921875 495.02636719 C281.57102512 498.04532769 283.11704874 501.09480366 284.625 504.1875 C285.13289063 505.21230469 285.64078125 506.23710938 286.1640625 507.29296875 C287 510 287 510 286.1862793 511.94262695 C285.79480713 512.62156006 285.40333496 513.30049316 285 514 C284.6599292 514.59039063 284.3198584 515.18078125 283.96948242 515.7890625 C282.71203659 517.86138173 281.45299071 519.93257889 280.1875 522 C279.70466553 522.78963135 279.22183105 523.5792627 278.72436523 524.39282227 C274.56257208 531.15947399 270.25381448 537.82423936 265.90454102 544.47143555 C262.25598578 550.05142088 258.66896655 555.66558569 255.125 561.3125 C250.657845 568.4246516 246.10037849 575.47334264 241.5 582.5 C235.39030518 591.83526682 229.38748431 601.23133847 223.45605469 610.68066406 C216.67525557 621.48173577 209.8685289 632.26415022 202.91577148 642.95556641 C199.23829832 648.61244255 195.61753789 654.30465431 192 660 C190.83351163 661.83344678 189.66684645 663.66678109 188.5 665.5 C187.9225 666.4075 187.345 667.315 186.75 668.25 C185 671 183.25 673.75 181.5 676.5 C180.9313623 677.40266602 180.36272461 678.30533203 179.77685547 679.23535156 C178.55340104 681.13895118 177.29484996 683.02029801 176.00830078 684.88183594 C171.2198164 691.90235573 171.2198164 691.90235573 170.875 700.25 C171.0296875 701.52875 171.184375 702.8075 171.34375 704.125 C172.18547925 709.09521082 173.11348655 714.03216775 174.171875 718.9609375 C175.14761729 723.57374763 175.89376799 728.21806289 176.625 732.875 C176.74794434 733.6474707 176.87088867 734.41994141 176.99755859 735.21582031 C177.81387258 740.46500074 178.44334012 745.71698268 179 751 C183.56671941 748.98162278 188.12562591 746.94770612 192.66796875 744.875 C197.63671769 742.61428776 202.61383238 740.37267811 207.59375 738.13671875 C209.20076771 737.41496378 210.80778261 736.69320254 212.41479492 735.97143555 C213.24401459 735.59900726 214.07323425 735.22657898 214.92758179 734.84286499 C215.7764798 734.46159454 216.62537781 734.0803241 217.5 733.6875 C218.80126328 733.10314682 218.80126328 733.10314682 220.1288147 732.50698853 C229.75125251 728.18427883 239.36564624 723.84580782 248.94921875 719.4375 C249.73591949 719.07598343 250.52262024 718.71446686 251.3331604 718.34199524 C255.03844625 716.6386081 258.74159866 714.93082894 262.44140625 713.21557617 C269.66199041 709.88296574 276.8833382 706.78741208 284.35205078 704.04248047 C286.61964093 703.1497449 288.60506345 702.18816392 290.6875 700.9375 C293.35843273 699.37525633 295.70044983 698.2804512 298.5625 697.1875 C302.61883439 695.62083193 306.44554339 693.80095873 310.3125 691.8125 C315.84373725 688.98414665 321.46143147 686.46984096 327.1875 684.0625 C334.07023123 681.16845397 340.89143214 678.1595742 347.67578125 675.04296875 C348.82278755 674.51613243 348.82278755 674.51613243 349.9929657 673.97865295 C353.82420602 672.2165031 357.65218276 670.4475283 361.47729492 668.67211914 C369.03307792 665.17916244 376.57334749 661.88810448 384.39379883 659.02270508 C386.64724418 658.13842568 388.61829086 657.17950192 390.6875 655.9375 C394.04776697 653.97206083 397.34954006 652.63085075 400.96948242 651.23583984 C404.32848998 649.86604235 407.59404265 648.35219978 410.875 646.8046875 C418.72167577 643.11903408 426.6051794 639.51862153 434.5 635.9375 C435.92172222 635.29201417 437.34343425 634.6465059 438.76513672 634.00097656 C448.2067748 629.71530077 457.65171823 625.43689073 467.09985352 621.16555786 C468.43603811 620.56147597 469.77214017 619.9572115 471.1081543 619.35275269 C477.38312946 616.51438072 483.66242905 613.69617933 490 611 C495.94102222 608.38133102 501.86338032 605.72042854 507.78515625 603.05859375 C508.5961377 602.6941214 509.40711914 602.32964905 510.24267578 601.95413208 C512.8494479 600.78228582 515.45600518 599.60996291 518.0625 598.4375 C519.39485184 597.83831253 519.39485184 597.83831253 520.75411987 597.22702026 C532.48413399 591.95050442 544.20290435 586.65195736 555.88110352 581.26147461 C559.45159741 579.61497743 563.02102751 577.9910108 566.63671875 576.4453125 C569.07502021 575.39749422 571.46704151 574.3194232 573.859375 573.17578125 C574.82037109 572.71655273 574.82037109 572.71655273 575.80078125 572.24804688 C577.11753585 571.61605744 578.43260583 570.98054785 579.74609375 570.34179688 C582.68227072 568.9451772 584.70605165 568 588 568 C586.39575434 571.60955273 584.18841922 574.46603056 581.75 577.5625 C577.44600879 583.07733887 573.26286463 588.6720747 569.125 594.3125 C564.78004069 600.23142258 560.41604355 606.13390125 556 612 C551.6301245 617.80677706 547.30464807 623.64471498 543 629.5 C536.24074395 638.69203343 529.40218286 647.82240095 522.54101562 656.93847656 C513.08803106 669.5024901 503.75345989 682.15181555 494.45703125 694.83203125 C488.21292559 703.33988453 481.90078168 711.78542426 475.47021484 720.15332031 C471.98509197 724.69392533 468.57388202 729.27835941 465.2265625 733.921875 C462.15199607 738.17232824 459.04590891 742.39925842 455.9375 746.625 C455.35943604 747.41310059 454.78137207 748.20120117 454.18579102 749.01318359 C453.61787842 749.78484863 453.04996582 750.55651367 452.46484375 751.3515625 C451.62348877 752.50253418 451.62348877 752.50253418 450.76513672 753.67675781 C449.54715608 755.2798427 448.27915137 756.84570774 446.97314453 758.37792969 C443.14572729 762.68222138 443.14572729 762.68222138 441.80859375 768.0703125 C443.33467424 771.82296944 445.08945256 775.33909022 447.0625 778.875 C447.88690609 780.39242092 448.70978971 781.91066984 449.53125 783.4296875 C450.15386719 784.5758252 450.15386719 784.5758252 450.7890625 785.74511719 C452.60844696 789.13298713 454.34609102 792.55903316 456.0625 796 C456.38879395 796.65347412 456.71508789 797.30694824 457.05126953 797.98022461 C459.42319848 802.76453311 461.68820658 807.59461658 463.9375 812.4375 C466.97454438 818.96957357 470.24165644 825.34560582 473.64208984 831.69506836 C479.55033805 842.73523366 485.06204275 853.95661337 490.29907227 865.33007812 C491.65743965 868.25937778 493.00156776 871.00248082 494.73046875 873.73828125 C496 876 496 876 496 880 C488.08924755 884.05005279 480.17359652 888.0045652 472 891.5 C466.7832926 893.73537111 461.68006459 896.10752927 456.625 898.6875 C449.50438778 902.32017005 442.26785195 905.67291815 435 909 C427.94535282 912.23117048 420.91059113 915.46991449 414 919 C407.08939613 922.53009202 400.05452103 925.76853229 393 929 C385.21642984 932.56670884 377.47958521 936.1832688 369.84594727 940.06030273 C358.65026129 945.73523077 347.26072232 951.03140721 335.875 956.3125 C328.5737056 959.70731764 321.31741909 963.19497957 314.0625 966.6875 C312.90024902 967.24671143 311.73799805 967.80592285 310.54052734 968.38208008 C303.34619527 971.8503862 296.18732157 975.37617365 289.0703125 979 C282.54101468 982.3164299 276.07809142 985.47624916 269.22265625 988.07421875 C266.08247776 989.38216656 263.21559235 991.08696512 260.2734375 992.78515625 C257.93588526 994.03426062 255.60129887 994.99619396 253.125 995.9375 C248.50141939 997.70533964 244.30517208 999.94888715 240.03125 1002.4375 C237.56348121 1003.70954577 235.20260281 1004.72795371 232.62109375 1005.72265625 C225.41058418 1008.54754414 218.51011407 1012.03053687 211.5625 1015.4375 C209.53880715 1016.42715734 207.51465586 1017.41576159 205.48828125 1018.3999176 C204.17137683 1019.0444259 202.85893207 1019.69813207 201.55126953 1020.3611908 C198.57781984 1021.85193292 195.8913138 1023.03047835 192.66992188 1023.93383789 C189.38247419 1024.90363496 187.47217481 1025.60767617 185 1028 C183.03609162 1034.11121845 182.71988653 1040.18567942 182.375 1046.5625 C182.2456933 1048.26925127 182.11162063 1049.97564853 181.97265625 1051.68164062 C181.6529004 1055.72674304 181.38751041 1059.7729816 181.14001465 1063.82305908 C180.83570248 1068.5544898 180.41450273 1073.277163 180 1078 C183.18997712 1077.23919159 186.37643969 1076.46453358 189.5625 1075.6875 C190.90538086 1075.36749023 190.90538086 1075.36749023 192.27539062 1075.04101562 C197.46936117 1073.7663049 202.12217318 1072.17501196 207 1070 C209.3203603 1069.25026094 211.65553143 1068.54555775 214 1067.875 C215.48567877 1067.44662042 216.97135568 1067.01823442 218.45703125 1066.58984375 C219.30861816 1066.3460498 220.16020508 1066.10225586 221.03759766 1065.85107422 C224.53126504 1064.84737185 228.02165345 1063.83254253 231.51171875 1062.81640625 C252.63981048 1056.66762043 252.63981048 1056.66762043 262.375 1053.90625 C267.71912412 1052.38188518 273.02400423 1050.76856143 278.3125 1049.0625 C286.4774109 1046.45767738 294.67712283 1043.99858226 302.90722656 1041.60888672 C306.44058392 1040.58086604 309.970063 1039.53969161 313.5 1038.5 C314.9257657 1038.08067628 316.35154692 1037.66140533 317.77734375 1037.2421875 C320.51974939 1036.43563461 323.26192847 1035.6283187 326.00390625 1034.8203125 C335.48124965 1032.02860805 344.96445645 1029.25739987 354.45141602 1026.49853516 C359.8323209 1024.93182299 365.20728536 1023.34766442 370.57324219 1021.73046875 C372.157642 1021.25355484 373.74289611 1020.77946732 375.32910156 1020.30859375 C380.259118 1018.84274903 385.1697187 1017.32263775 390.07421875 1015.7734375 C391.96946287 1015.1766957 393.86470757 1014.57995574 395.76000977 1013.98339844 C397.05091668 1013.57593295 398.34127856 1013.16673691 399.63110352 1012.75585938 C401.52720176 1012.1524792 403.42569164 1011.5566312 405.32421875 1010.9609375 C406.43885498 1010.60821777 407.55349121 1010.25549805 408.7019043 1009.89208984 C412.12652244 1008.96577741 415.48151944 1008.43078886 419 1008 C417.33563765 1011.99640494 414.57782167 1014.98115102 411.75 1018.1875 C402.18296985 1029.19653852 392.93507591 1040.45671064 383.97680664 1051.96606445 C379.9899349 1057.06558574 375.81945122 1061.99568164 371.6171875 1066.91796875 C369.20503476 1069.74683013 366.84580002 1072.61575122 364.5 1075.5 C361.19375665 1079.56330801 357.83173638 1083.57290596 354.4375 1087.5625 C350.52655169 1092.16321942 346.70404938 1096.82106558 342.94921875 1101.55078125 C337.56224612 1108.31958254 332.04007744 1114.97185617 326.4375 1121.5625 C321.85326123 1126.96152174 317.37698004 1132.43081397 313 1138 C312.11856523 1139.09901901 311.23705011 1140.19797358 310.35546875 1141.296875 C309.44474489 1142.44746762 308.53458281 1143.59850513 307.625 1144.75 C307.19566162 1145.28109375 306.76632324 1145.8121875 306.32397461 1146.359375 C302.2462276 1151.57159407 300.94003247 1156.55406308 300 1163 C299.33954812 1167.21038075 298.34716761 1170.95849718 297 1175 C296.64291804 1176.93326404 296.31250803 1178.87153218 296 1180.8125 C295.82210937 1181.85277344 295.64421875 1182.89304687 295.4609375 1183.96484375 C294.96521499 1186.91278651 294.96521499 1186.91278651 294.8515625 1189.56640625 C294.60123459 1192.11716129 294.27116169 1193.76543156 293 1196 C289.30209373 1198.73046779 285.26014186 1200.32503233 281 1202 C279.78828125 1202.49113281 278.5765625 1202.98226563 277.328125 1203.48828125 C275.43481804 1204.25197432 273.53968325 1205.00889923 271.63769531 1205.75073242 C267.53366692 1207.3531832 263.54423785 1209.10768894 259.5625 1211 C254.07006025 1213.58745932 248.49707969 1215.73902321 242.80102539 1217.8203125 C238.05605464 1219.56632461 233.49402455 1221.56181296 228.91796875 1223.71484375 C225.26974017 1225.32162716 221.55450666 1226.69171681 217.8125 1228.0625 C213.00551128 1229.82517388 208.36008499 1231.67701383 203.83203125 1234.07421875 C198.00398104 1237.01931022 191.71627791 1239.10869602 185.625 1241.4375 C180.5951944 1243.36666067 175.61026737 1245.37081051 170.66015625 1247.49609375 C167.6222049 1248.74434484 164.57758103 1249.90172967 161.49609375 1251.03515625 C160.51116943 1251.40930664 159.52624512 1251.78345703 158.51147461 1252.16894531 C156.53755724 1252.91850583 154.55532075 1253.64659101 152.56469727 1254.35058594 C148.06139611 1256.09012969 144.81290565 1257.3705639 142.52734375 1261.78125 C141.98019785 1263.17314371 141.47054409 1264.58037858 141 1266 C140.74557129 1266.66862061 140.49114258 1267.33724121 140.22900391 1268.02612305 C139.46353763 1270.0672841 138.7575372 1272.12138113 138.0625 1274.1875 C137.55099449 1275.67369948 137.03795427 1277.15937157 136.5234375 1278.64453125 C136.27045898 1279.37494629 136.01748047 1280.10536133 135.75683594 1280.85791016 C134.25963999 1285.09545767 132.6174859 1289.2756833 130.98046875 1293.4609375 C130.27412318 1295.29011926 129.62006693 1297.13979921 129 1299 C129.65484375 1298.68546875 130.3096875 1298.3709375 130.984375 1298.046875 C135.92038868 1295.73224711 140.80366823 1293.65956146 146 1292 C150.96239761 1290.41203276 155.58091965 1288.42984028 160.29296875 1286.21875 C163.83178534 1284.62551656 167.44311547 1283.32842922 171.1015625 1282.0390625 C174.34246722 1280.87722873 177.54391313 1279.62955573 180.75 1278.375 C185.13118638 1276.67787774 189.44961399 1275.16405224 194 1274 C194 1276 194 1276 191.984375 1278.1171875 C191.52611328 1278.55772461 191.06785156 1278.99826172 190.59570312 1279.45214844 C181.83735569 1287.94785265 173.58597817 1297.04062713 166.00390625 1306.59375 C163.28683382 1309.85635549 160.26891655 1312.750935 157.23046875 1315.7109375 C154.92460982 1318.07737066 152.87289243 1320.54284461 150.8125 1323.125 C146.46814345 1328.55353692 141.784968 1333.60046337 137.01733398 1338.65820312 C133.53849739 1342.349066 130.1334336 1346.07793463 126.828125 1349.92578125 C124.82623977 1352.19715103 122.76794411 1354.40872075 120.70239258 1356.62207031 C115.5800993 1362.11143089 110.72395281 1367.717002 106.01953125 1373.57421875 C103.71800104 1376.33872603 101.25390084 1378.83682074 98.671875 1381.3359375 C96.27509166 1383.72152091 94.09079027 1386.27255926 91.8828125 1388.83203125 C89.7842468 1391.24842951 87.645603 1393.62529024 85.5 1396 C82.84886006 1398.93678465 80.21709829 1401.88602542 77.625 1404.875 C74.17283922 1408.84097076 70.61249119 1412.70517646 67.05175781 1416.57324219 C63.89550293 1420.00754292 60.79792941 1423.4842058 57.7421875 1427.0078125 C54.92536738 1430.22883999 52.04689854 1433.39417636 49.1796875 1436.5703125 C47.30854906 1438.6560618 45.46075169 1440.75817628 43.625 1442.875 C40.17863713 1446.8343099 36.62493737 1450.69266613 33.06933594 1454.5534668 C29.7363326 1458.17888964 26.46475395 1461.8505355 23.2421875 1465.57421875 C22.51888012 1466.40443006 21.7785963 1467.2214037 21 1468 C20.85676533 1470.16443502 20.76460665 1472.33220165 20.6875 1474.5 C20.21529355 1484.88159765 18.82406231 1495.16082366 17.4597168 1505.45507812 C16.51371384 1512.74475594 15.84314578 1519.97106846 15.5234375 1527.31640625 C15.12639826 1536.28784114 14.12859115 1545.11634722 12.95861816 1554.01629639 C10.59310918 1572.07007216 8.76396173 1590.13260115 7.30957031 1608.28076172 C7.14423487 1610.26713411 6.97259673 1612.25333358 6.75823689 1614.23501492 C5.92783796 1622.2247087 5.8276235 1630.17563126 5.79467773 1638.2019043 C5.78507717 1639.70104733 5.77506589 1641.20018777 5.76467896 1642.69932556 C5.7378595 1646.73571884 5.71672704 1650.77212354 5.69667697 1654.80855536 C5.67467419 1659.03928646 5.64735603 1663.26998329 5.62062073 1667.50068665 C5.57088568 1675.4972269 5.52587641 1683.49378637 5.48259836 1691.4903639 C5.43306104 1700.60050457 5.37820456 1709.71061085 5.32291877 1718.82071817 C5.20939363 1737.54711481 5.10319344 1756.27354338 5 1775 C-4.9 1775 -14.8 1775 -25 1775 C-25.02187378 1768.40741211 -25.02187378 1768.40741211 -25.04418945 1761.68164062 C-25.09502432 1746.99351694 -25.16155664 1732.30549329 -25.23571491 1717.61746979 C-25.28021162 1708.73132007 -25.31965007 1699.84520653 -25.34643555 1690.95898438 C-25.35013045 1638.66614241 -25.35013045 1638.66614241 -28.69444275 1586.50749207 C-29.16429895 1581.11401211 -29.32007573 1575.72328919 -29.4375 1570.3125 C-29.85046168 1555.49456052 -31.11622621 1540.74430097 -32.27746582 1525.9697876 C-33.45692941 1510.91732312 -34.47485435 1495.92099554 -34.82421875 1480.82421875 C-34.85451172 1479.99325684 -34.88480469 1479.16229492 -34.91601562 1478.30615234 C-34.97003274 1476.82287993 -34.9969886 1475.33824421 -34.99023438 1473.85400391 C-35.25830131 1467.40013668 -38.76283643 1464.26226669 -43.125 1460 C-44.44142224 1458.66796801 -45.75653028 1457.33463591 -47.0703125 1456 C-47.72467285 1455.34281982 -48.3790332 1454.68563965 -49.05322266 1454.00854492 C-51.60107381 1451.37985525 -53.99228921 1448.63273991 -56.38330078 1445.86181641 C-58.65461372 1443.24613648 -61.01381479 1440.72240605 -63.375 1438.1875 C-66.79091752 1434.49723961 -70.05661391 1430.7515498 -73.1875 1426.8125 C-77.79774779 1421.07860758 -82.84434678 1415.80449155 -87.91577148 1410.47875977 C-92.67409048 1405.4623021 -97.23409979 1400.32525163 -101.69140625 1395.04125977 C-105.61825718 1390.40025305 -109.70340073 1385.92684279 -113.84594727 1381.47827148 C-117.0647569 1378.02067617 -120.21226557 1374.51578999 -123.3046875 1370.9453125 C-128.4823283 1365.00414864 -133.81653844 1359.19900259 -139.125 1353.375 C-142.51424992 1349.65203932 -145.85434753 1345.89405284 -149.15625 1342.09375 C-151.40876457 1339.53580973 -153.70317092 1337.0182102 -156 1334.5 C-159.45575413 1330.71065874 -162.8652289 1326.88916302 -166.23046875 1323.01953125 C-169.77576954 1318.97334911 -173.39458999 1314.99256813 -177 1311 C-185.56860207 1301.51127959 -185.56860207 1301.51127959 -189.4375 1297.0625 C-193.10667962 1292.844658 -196.88541014 1288.72941983 -200.66796875 1284.61328125 C-202.22621031 1282.86711106 -203.72997867 1281.07081709 -205.17578125 1279.23046875 C-206.80639728 1276.92628887 -206.80639728 1276.92628887 -209 1276 C-209 1275.34 -209 1274.68 -209 1274 C-202.90022289 1275.9262454 -197.00332999 1278.18441471 -191.07836914 1280.59399414 C-185.51198669 1282.83718371 -179.87801139 1284.84438765 -174.21044922 1286.81518555 C-168.77166301 1288.71135042 -163.39443918 1290.74069142 -158.02734375 1292.83203125 C-153.37742303 1294.62600066 -148.6911034 1296.31721942 -144 1298 C-144.38671875 1297.05640625 -144.7734375 1296.1128125 -145.171875 1295.140625 C-148.03945047 1288.08986072 -150.72286089 1281.0470922 -153.0546875 1273.796875 C-154.28948264 1270.14351416 -155.75192316 1266.60414921 -157.265625 1263.05859375 C-158 1261 -158 1261 -158 1258 C-158.67804688 1257.89171875 -159.35609375 1257.7834375 -160.0546875 1257.671875 C-163.56467299 1256.87118865 -166.80416738 1255.61023884 -170.125 1254.25 C-170.78588623 1253.98268066 -171.44677246 1253.71536133 -172.12768555 1253.43994141 C-176.96558901 1251.46636258 -181.72239699 1249.34155721 -186.46484375 1247.1484375 C-191.57582001 1244.83314163 -196.80708054 1242.82339505 -202.05859375 1240.8515625 C-207.57952459 1238.77044331 -212.97958637 1236.59035386 -218.3125 1234.0625 C-223.91357794 1231.4183018 -229.59813123 1229.23075109 -235.40942383 1227.10961914 C-239.36068955 1225.65474578 -243.05624471 1224.03868076 -246.76171875 1222.05859375 C-250.03023865 1220.51274926 -253.42068492 1219.30574929 -256.8125 1218.0625 C-261.36918608 1216.39088397 -265.85217221 1214.68843579 -270.25 1212.625 C-277.05328592 1209.43499188 -284.05231688 1206.73170743 -291.03515625 1203.96484375 C-291.84355957 1203.64201416 -292.65196289 1203.31918457 -293.48486328 1202.98657227 C-295.24110469 1202.29767967 -297.00597572 1201.63056439 -298.77685547 1200.98022461 C-299.6742041 1200.64385986 -300.57155273 1200.30749512 -301.49609375 1199.9609375 C-302.71897095 1199.51500244 -302.71897095 1199.51500244 -303.96655273 1199.06005859 C-306 1198 -306 1198 -308 1194.6875 C-308.33 1193.470625 -308.66 1192.25375 -309 1191 C-309.350625 1189.96875 -309.70125 1188.9375 -310.0625 1187.875 C-310.88304768 1184.4834029 -311.44011571 1181.19907468 -311.9375 1177.75 C-312.69449918 1172.54637569 -313.80033366 1167.62806241 -315.3203125 1162.59765625 C-316 1160 -316 1160 -316.1796875 1157.62109375 C-316.92068899 1148.62533567 -323.57981457 1143.03001663 -329.42578125 1136.72753906 C-331.43365742 1134.52410671 -333.28936939 1132.22307749 -335.125 1129.875 C-338.10291431 1126.0917378 -341.18447757 1122.4092474 -344.3125 1118.75 C-348.13563316 1114.27151033 -351.82861104 1109.7151267 -355.4375 1105.0625 C-359.73086117 1099.52922909 -364.21209775 1094.19291921 -368.79833984 1088.90087891 C-372.05047559 1085.13877087 -375.14649374 1081.29665737 -378.16015625 1077.33984375 C-380.52989407 1074.32610075 -383.01154972 1071.41592438 -385.5 1068.5 C-388.58044761 1064.88967193 -391.61613572 1061.27120714 -394.5 1057.5 C-397.30234051 1053.83694061 -400.25342354 1050.31682969 -403.25 1046.8125 C-407.59336884 1041.72932658 -411.75859524 1036.53382666 -415.85644531 1031.25146484 C-419.56227527 1026.49764211 -423.42320945 1021.89226829 -427.38476562 1017.34960938 C-429.94773687 1014.37932935 -432.02595938 1011.38239345 -434 1008 C-425.73514199 1009.99343606 -417.5786636 1012.2402382 -409.4375 1014.6875 C-407.07294118 1015.3933113 -404.70835707 1016.09903787 -402.34375 1016.8046875 C-400.53583984 1017.34561035 -400.53583984 1017.34561035 -398.69140625 1017.89746094 C-392.61012602 1019.71380098 -386.52354727 1021.51221135 -380.4375 1023.3125 C-376.29108837 1024.53972592 -372.14518331 1025.76863153 -368 1027 C-367.17894775 1027.24347168 -366.35789551 1027.48694336 -365.51196289 1027.73779297 C-356.91084033 1030.30132689 -348.3509927 1032.99879639 -339.78710938 1035.68359375 C-331.4397713 1038.28638578 -323.07687265 1040.73078184 -314.59375 1042.8515625 C-306.28378506 1044.92905374 -298.23213972 1047.5589589 -290.125 1050.3125 C-280.20948886 1053.6754627 -270.26029646 1056.70866758 -260.16162109 1059.46923828 C-248.16451077 1062.75159267 -236.28815391 1066.41785183 -224.4140625 1070.1171875 C-214.32699954 1073.25480862 -204.16379207 1076.12282953 -194 1079 C-194.33 1078.34 -194.66 1077.68 -195 1077 C-195.21584669 1075.50737666 -195.38314616 1074.00757593 -195.52490234 1072.50610352 C-195.66042007 1071.10939171 -195.66042007 1071.10939171 -195.79867554 1069.6844635 C-195.89347198 1068.67612961 -195.98826843 1067.66779572 -196.0859375 1066.62890625 C-196.2963173 1064.50710609 -196.50727261 1062.38536292 -196.71875 1060.26367188 C-197.04930901 1056.90864546 -197.37585791 1053.55340282 -197.69238281 1050.19702148 C-197.99911672 1046.96468236 -198.32245322 1043.73435292 -198.6484375 1040.50390625 C-198.73918549 1039.49759659 -198.82993347 1038.49128693 -198.9234314 1037.45448303 C-199.02008087 1036.52018967 -199.11673035 1035.5858963 -199.21630859 1034.62329102 C-199.29545502 1033.80103531 -199.37460144 1032.9787796 -199.45614624 1032.13160706 C-200.10520822 1029.58764173 -200.98548139 1028.64095541 -203 1027 C-205.02744839 1025.7857834 -205.02744839 1025.7857834 -207.3359375 1024.70703125 C-208.22506836 1024.27600098 -209.11419922 1023.8449707 -210.03027344 1023.40087891 C-215.54751305 1020.79828758 -221.08284677 1018.23654485 -226.625 1015.6875 C-236.84475501 1010.97031738 -246.97720692 1006.12250101 -257 1001 C-259.18609429 999.89305283 -261.37350995 998.78870972 -263.5625 997.6875 C-264.45066406 997.23761719 -265.33882812 996.78773438 -266.25390625 996.32421875 C-268.78541175 995.10347854 -271.34838969 993.9994669 -273.93579102 992.90405273 C-278.40555017 990.94645153 -282.78916681 988.79938673 -287.1875 986.6875 C-288.72180664 985.95273438 -288.72180664 985.95273438 -290.28710938 985.203125 C-296.39212982 982.27302607 -302.4734003 979.30738235 -308.5 976.21875 C-311.61939216 974.69804632 -314.80470158 973.35065773 -318 972 C-327.94688606 967.74830972 -337.64177746 963.24210281 -347.15234375 958.08227539 C-351.56456388 955.70530605 -355.96786556 953.704941 -360.671875 951.9609375 C-363.44962895 950.8144149 -366.00370295 949.40571283 -368.625 947.9375 C-371.62560972 946.25749289 -374.50413007 944.70066218 -377.75 943.5625 C-388.21371468 939.89064881 -398.14677514 934.53581074 -407.83764648 929.19677734 C-411.35668884 927.28497541 -414.85674548 925.61633772 -418.59375 924.171875 C-424.78851259 921.76059813 -430.72270861 918.8373119 -436.68780518 915.91659546 C-439.42888081 914.57450332 -442.17370529 913.24015823 -444.91827393 911.90522766 C-446.30612197 911.23007783 -447.69377742 910.55453197 -449.08123779 909.87858582 C-455.08322365 906.95511113 -461.10015099 904.06356824 -467.125 901.1875 C-468.49591797 900.53249512 -468.49591797 900.53249512 -469.89453125 899.86425781 C-474.48044197 897.6747811 -479.06925827 895.49149887 -483.66015625 893.3125 C-492.81978399 888.9634566 -501.96398221 884.6021954 -511 880 C-510.36590601 875.82121667 -508.05150826 872.60703188 -505.8125 869.125 C-505.37325195 868.43229004 -504.93400391 867.73958008 -504.48144531 867.02587891 C-503.51239526 865.49940772 -502.54074856 863.97458273 -501.56689453 862.45117188 C-499.94457065 859.91328909 -498.32906267 857.37116974 -496.71484375 854.828125 C-493.76314046 850.18066397 -490.80502762 845.53731898 -487.84521484 840.89501953 C-484.74817177 836.03596465 -481.65555772 831.17409234 -478.5625 826.3125 C-477.45965615 824.57941389 -476.35679224 822.84634055 -475.25390625 821.11328125 C-474.72055664 820.27514893 -474.18720703 819.4370166 -473.63769531 818.57348633 C-472.51729445 816.81288027 -471.39684966 815.05230217 -470.27636719 813.29174805 C-467.37335998 808.73028299 -464.47104675 804.16837962 -461.5703125 799.60546875 C-461.00642822 798.71923828 -460.44254395 797.83300781 -459.86157227 796.91992188 C-458.67243942 795.04887242 -457.4855355 793.17640505 -456.30053711 791.30273438 C-453.60825936 787.05377567 -450.90585196 782.82289617 -448.05859375 778.67578125 C-447.6311084 778.04454346 -447.20362305 777.41330566 -446.76318359 776.76293945 C-445.64763981 775.12500906 -444.51399061 773.49944988 -443.37890625 771.875 C-441.61621177 768.19980697 -441.66044283 766.84520368 -443 763 C-444.73429985 760.20549378 -446.74581738 757.67971071 -448.8125 755.125 C-450.00857109 753.60476319 -451.2038668 752.08391606 -452.3984375 750.5625 C-453.30674316 749.41587891 -453.30674316 749.41587891 -454.23339844 748.24609375 C-456.85540382 744.9124219 -459.40048209 741.52354959 -461.9375 738.125 C-462.42404053 737.47523193 -462.91058105 736.82546387 -463.41186523 736.15600586 C-470.88682807 726.15975037 -478.2649576 716.09123623 -485.6484375 706.02734375 C-490.83029238 698.97076979 -496.01342857 691.92152942 -501.375 685 C-504.90124117 680.44669829 -508.33046016 675.83964315 -511.703125 671.171875 C-520.40478571 659.15529592 -529.28361471 647.28236509 -538.30517578 635.50439453 C-542.49576329 630.01825543 -546.57681749 624.47367471 -550.55126953 618.82958984 C-553.71795836 614.34736263 -557.03721606 610.00272905 -560.40087891 605.66845703 C-563.56660409 601.58337056 -566.62597386 597.43383461 -569.6484375 593.2421875 C-573.47261217 587.94958542 -577.37066742 582.71048719 -581.25292969 577.46044922 C-581.83719727 576.66912598 -582.42146484 575.87780273 -583.0234375 575.0625 C-583.54856934 574.35222656 -584.07370117 573.64195312 -584.61474609 572.91015625 C-585.78185797 571.30080071 -586.89725163 569.65412255 -588 568 C-583.61092679 568.63859975 -579.92145844 570.28559758 -575.96875 572.203125 C-575.29638306 572.52279236 -574.62401611 572.84245972 -573.93127441 573.17181396 C-571.7849503 574.19259941 -569.64214466 575.22047581 -567.5 576.25 C-558.68869618 580.48129109 -549.95956221 584.57610836 -540.75195312 587.88574219 C-537.96102186 589.01578214 -535.54944272 590.40735136 -533 592 C-531.55659528 592.61935184 -530.09714763 593.20246439 -528.625 593.75 C-524.20273691 595.4675754 -519.91045124 597.4071494 -515.625 599.4375 C-511.12222026 601.56796836 -506.61346145 603.61606628 -502 605.5 C-497.73222296 607.24529262 -493.54723096 609.11562246 -489.375 611.078125 C-488.04442289 611.70214723 -486.71368515 612.32582705 -485.3828125 612.94921875 C-484.32175293 613.44639404 -484.32175293 613.44639404 -483.23925781 613.95361328 C-476.70003127 617.00933995 -470.14349559 620.02802455 -463.59033203 623.05371094 C-460.97516824 624.26146801 -458.36063287 625.47057885 -455.74609375 626.6796875 C-454.05993421 627.45841644 -452.37373765 628.23706522 -450.6875 629.015625 C-449.91760742 629.37190979 -449.14771484 629.72819458 -448.35449219 630.09527588 C-442.12952271 632.96637516 -435.84747836 635.65993699 -429.5 638.25 C-424.29382484 640.41385692 -419.18200956 642.74925255 -414.08622742 645.1580658 C-409.33663941 647.39606403 -404.55131999 649.54089611 -399.74609375 651.65625 C-393.19041494 654.55610636 -386.66760234 657.51963779 -380.16796875 660.54296875 C-379.34798401 660.92403275 -378.52799927 661.30509674 -377.6831665 661.69770813 C-374.33897541 663.25294075 -370.99551752 664.80969827 -367.65454102 666.37182617 C-358.71282699 670.54946268 -349.82235313 674.63197272 -340.54150391 678.00854492 C-338.26998526 678.89467722 -336.27650034 679.87873127 -334.1875 681.125 C-331.32993366 682.80592137 -328.59638392 683.92366617 -325.484375 685.02734375 C-322.16812225 686.32568799 -318.96631174 687.85031661 -315.75 689.375 C-311.20558627 691.52664308 -306.65712892 693.59938793 -302 695.5 C-297.73219966 697.24523357 -293.5472287 699.11562352 -289.375 701.078125 C-288.04442289 701.70214723 -286.71368515 702.32582705 -285.3828125 702.94921875 C-284.67543945 703.28066895 -283.96806641 703.61211914 -283.23925781 703.95361328 C-276.70003127 707.00933995 -270.14349559 710.02802455 -263.59033203 713.05371094 C-260.97516824 714.26146801 -258.36063287 715.47057885 -255.74609375 716.6796875 C-254.05993421 717.45841644 -252.37373765 718.23706522 -250.6875 719.015625 C-249.91760742 719.37190979 -249.14771484 719.72819458 -248.35449219 720.09527588 C-242.12952271 722.96637516 -235.84747836 725.65993699 -229.5 728.25 C-224.38218774 730.37663715 -219.36922121 732.67980914 -214.36157227 735.05273438 C-207.29380843 738.37622911 -200.11956743 741.45349489 -192.9440918 744.53588867 C-188.22464233 746.56923628 -183.56107142 748.63101181 -179 751 C-178.86464844 749.9790625 -178.72929688 748.958125 -178.58984375 747.90625 C-178.05766153 744.38186446 -177.36020816 740.97189042 -176.5625 737.5 C-175.21585781 731.33927461 -174.30865812 725.20952705 -173.54296875 718.953125 C-173.15132401 716.10172591 -172.70765104 713.30899425 -172.17578125 710.484375 C-172.03333984 709.72680908 -171.89089844 708.96924316 -171.74414062 708.1887207 C-171.46391423 706.7272006 -171.17532815 705.26724942 -170.87695312 703.80932617 C-169.63396832 697.31098288 -170.12785707 692.72627645 -173.8515625 687.2265625 C-174.44775391 686.33195313 -175.04394531 685.43734375 -175.65820312 684.515625 C-176.30724609 683.56171875 -176.95628906 682.6078125 -177.625 681.625 C-179.00471283 679.55609217 -180.38225323 677.48573424 -181.7578125 675.4140625 C-182.46454102 674.35219727 -183.17126953 673.29033203 -183.89941406 672.19628906 C-187.1911896 667.18746464 -190.34599599 662.09627902 -193.5 657 C-199.07456223 648.02042306 -204.78471695 639.14064177 -210.5793457 630.30175781 C-216.99002332 620.51433514 -223.22100805 610.61783646 -229.43847656 600.70703125 C-235.37584843 591.24898655 -241.38472313 581.84420507 -247.5 572.5 C-253.60374078 563.1734222 -259.60087513 553.78631759 -265.52636719 544.34570312 C-267.59566271 541.05183445 -269.67221073 537.76257261 -271.75048828 534.47436523 C-272.77730922 532.84778971 -273.80179466 531.21973706 -274.82373047 529.59008789 C-276.94497937 526.2127896 -279.0747853 522.85456658 -281.34375 519.57421875 C-281.9934375 518.62160156 -282.643125 517.66898438 -283.3125 516.6875 C-283.86550781 515.90761719 -284.41851563 515.12773438 -284.98828125 514.32421875 C-286.39999627 511.08108965 -285.96691504 509.38629554 -285 506 C-283.81456772 503.50726857 -282.60187279 501.14592695 -281.25 498.75 C-280.52692238 497.42210436 -279.80426674 496.09397886 -279.08203125 494.765625 C-277.84430068 492.51684617 -276.59115219 490.27951294 -275.32421875 488.046875 C-274.86660156 487.20640625 -274.40898438 486.3659375 -273.9375 485.5 C-273.53402344 484.7884375 -273.13054687 484.076875 -272.71484375 483.34375 C-270.83640642 477.18493908 -274.10354686 469.44231876 -275.73046875 463.44140625 C-276.00337234 462.42062485 -276.27627594 461.39984344 -276.55744934 460.34812927 C-277.43031583 457.08521545 -278.30852556 453.82377324 -279.1875 450.5625 C-280.3294357 446.31449919 -281.46875245 442.06580668 -282.60546875 437.81640625 C-283.02857079 436.23505135 -283.02857079 436.23505135 -283.46022034 434.62174988 C-285.96165176 425.22926014 -288.33093616 415.80599856 -290.66455078 406.37060547 C-291.97103076 401.09222504 -293.32149648 395.82575637 -294.6875 390.5625 C-294.88915268 389.78501907 -295.09080536 389.00753815 -295.29856873 388.20649719 C-296.26249006 384.51128354 -297.35055367 380.89271129 -298.58203125 377.27734375 C-299.62901937 374.19689125 -300.46395426 371.21627447 -301 368 C-301.59467947 364.79561147 -302.34092597 361.81813458 -303.4375 358.75 C-305.22782682 353.68644939 -306.21904139 348.4963997 -307.25390625 343.234375 C-307.89439459 340.07879472 -307.89439459 340.07879472 -308.99609375 337.515625 C-310.68258874 333.28954418 -311.33623709 328.82593468 -312.21875 324.375 C-312.87293026 321.12460815 -312.87293026 321.12460815 -313.96582031 318.67675781 C-315.10450396 315.72951337 -315.71922139 312.8968319 -316.328125 309.796875 C-317.48189257 304.23147223 -318.80920376 298.75079447 -320.296875 293.265625 C-320.59627991 292.1584613 -320.59627991 292.1584613 -320.9017334 291.02893066 C-321.72722847 287.98713745 -322.55805793 284.94686161 -323.39501953 281.90820312 C-324.01431845 279.65397394 -324.62490551 277.39752816 -325.234375 275.140625 C-325.42698914 274.45115784 -325.61960327 273.76169067 -325.8180542 273.05133057 C-327.11334361 268.22668722 -327.11334361 268.22668722 -326 266 C-255.71 336.29 -185.42 406.58 -113 479 C-111.30870856 468.03524977 -111.30870856 468.03524977 -109.78125 457.05078125 C-109.67784302 456.26841599 -109.57443604 455.48605072 -109.46789551 454.67997742 C-109.25214042 453.04431319 -109.03709435 451.40855528 -108.82275391 449.77270508 C-108.5027123 447.3331746 -108.1792328 444.89411702 -107.85546875 442.45507812 C-106.70140469 433.70731333 -105.64001952 424.95554613 -104.68589783 416.18371582 C-104.07013718 410.54595579 -103.35727405 404.92797048 -102.5625 399.3125 C-102.3083455 397.46357577 -102.05444846 395.61461614 -101.80078125 393.765625 C-101.39201329 390.80702053 -100.97847216 387.84928147 -100.55615234 384.89257812 C-100.11250072 381.78365215 -99.68064264 378.673251 -99.25 375.5625 C-99.11021729 374.60964111 -98.97043457 373.65678223 -98.82641602 372.67504883 C-97.72938361 364.64138507 -98.49248811 358.65550046 -101.6875 351.125 C-104.00722304 345.55766469 -106.10595226 339.95484782 -108.0625 334.25 C-109.68229022 329.55527404 -111.36902561 324.99342843 -113.5 320.5 C-115.90310763 315.42677278 -117.73301343 310.20431048 -119.55419922 304.90380859 C-121.57644207 299.07302975 -123.81026494 293.34542692 -126.125 287.625 C-129.33220513 279.6937088 -132.34506881 271.72758675 -135.171875 263.65234375 C-137.50693439 257.02913517 -139.99769541 250.53206409 -142.74609375 244.0703125 C-144.55485947 239.64137215 -146.12528909 235.13670901 -147.69140625 230.6171875 C-149.97072933 224.31673026 -152.53658533 218.13123501 -155.0703125 211.9296875 C-155.75520833 210.24479167 -156.44010417 208.55989583 -157.125 206.875 C-157.47175781 206.03324219 -157.81851562 205.19148437 -158.17578125 204.32421875 C-160.22392879 199.26270472 -161.80604755 194.32970527 -163 189 C-159.26761523 188.80876474 -156.77600596 189.29399065 -153.375 190.8125 C-146.36505307 193.75584567 -139.21671257 195.61978949 -131.75 197 C-127.52181492 197.79777077 -123.95947917 199.30308036 -120 201 C-118.34029545 201.36642828 -116.67257877 201.69772673 -115 202 C-110.66053149 202.7842413 -107.05936751 204.26027107 -103 206 C-101.34029545 206.36642828 -99.67257877 206.69772673 -98 207 C-93.66053149 207.7842413 -90.05936751 209.26027107 -86 211 C-82.68751625 211.79519124 -79.35728672 212.42581615 -76 213 C-75.72542969 211.84113281 -75.45085938 210.68226563 -75.16796875 209.48828125 C-74.11664218 205.29126764 -72.7825673 201.2538722 -71.3125 197.1875 C-71.05194824 196.45740723 -70.79139648 195.72731445 -70.52294922 194.97509766 C-68.31147736 188.80211544 -66.02725878 182.65622297 -63.74731445 176.50830078 C-60.36236054 167.33967937 -57.18277889 158.10040141 -53.99072266 148.86328125 C-52.39798023 144.2601065 -50.79413387 139.66084162 -49.1875 135.0625 C-48.90970703 134.26465088 -48.63191406 133.46680176 -48.34570312 132.64477539 C-46.63055501 127.73667665 -44.838876 122.86291147 -43 118 C-38.13767064 105.0197759 -33.51784953 91.96380698 -28.99072266 78.86328125 C-27.39798023 74.2601065 -25.79413387 69.66084162 -24.1875 65.0625 C-23.90970703 64.26465088 -23.63191406 63.46680176 -23.34570312 62.64477539 C-21.63055501 57.73667665 -19.838876 52.86291147 -18 48 C-16.93165114 45.1479909 -15.87024014 42.29345979 -14.8125 39.4375 C-14.51569336 38.63610596 -14.21888672 37.83471191 -13.91308594 37.0090332 C-11.07449474 29.29428469 -8.38824411 21.52840503 -5.75317383 13.74194336 C-4.11710001 8.96403977 -2.41047811 4.4415291 0 0 Z " fill="#444444" transform="translate(1034,165)"/>
</svg>
